<?xml version="1.0" standalone="no"?>
<!DOCTYPE svg PUBLIC "-//W3C//DTD SVG 20010904//EN"
 "http://www.w3.org/TR/2001/REC-SVG-20010904/DTD/svg10.dtd">
<svg data-v-0dd9719b="" version="1.0" xmlns="http://www.w3.org/2000/svg" xmlns:xlink="http://www.w3.org/1999/xlink" width="100%" height="100%" viewBox="0 0 340.000000 250.000000" preserveAspectRatio="xMidYMid meet" color-interpolation-filters="sRGB" style="margin: auto;"> <rect data-v-0dd9719b="" x="0" y="0" width="100%" height="100%" fill="transparent" fill-opacity="1" class="background"></rect> <rect data-v-0dd9719b="" x="0" y="0" width="100%" height="100%" fill="url(#watermark)" fill-opacity="1" class="watermarklayer"></rect> <g data-v-0dd9719b="" fill="#ffffff" class="basesvg" transform="translate(71.06000518798828,103.16161918640137)"><g data-gra="path-name" fill-rule="" class="tp-name"><g transform="scale(1)"><g><path d="M11.61 2.53L11.61 2.53Q8.74 2.53 6.35 1.57 3.96 0.6 2.56-1.4 1.16-3.41 1.16-6.54L1.16-6.54Q1.16-8.3 1.65-10.34L1.65-10.34Q2.42-13.59 4.21-16.83 6-20.07 8.5-22.93 11-25.8 13.97-28.02 16.94-30.25 20.1-31.54 23.27-32.84 26.4-32.84L26.4-32.84Q27.34-32.84 28.32-32.67L28.32-32.67Q30.52-32.29 31.6-31.05 32.67-29.81 32.67-28.21L32.67-28.21Q32.67-26.34 31.46-24.48 30.25-22.61 28.3-20.93 26.34-19.25 24.06-17.93 21.78-16.61 19.58-15.79 17.38-14.96 15.68-14.85L15.68-14.85Q14.63-14.79 14.63-15.46L14.63-15.46Q14.63-15.79 14.99-16.14 15.35-16.5 16-16.55L16-16.55Q20.3-16.94 24.01-19.17 27.72-21.39 29.7-25.25L29.7-25.25Q30.14-26.07 30.39-26.92 30.64-27.77 30.64-28.55L30.64-28.55Q30.64-29.75 29.95-30.61 29.26-31.46 27.55-31.46L27.55-31.46Q25.68-31.46 23.16-30.33 20.63-29.21 17.85-27.17 15.07-25.14 12.4-22.36 9.73-19.58 7.62-16.31 5.5-13.04 4.34-9.4L4.34-9.4Q3.63-7.21 3.63-5.33L3.63-5.33Q3.63-1.98 5.94-0.41 8.25 1.16 11.94 1.16L11.94 1.16Q15.13 1.16 18.95 0.06 22.77-1.04 26.4-3.33 30.03-5.61 32.51-9.13L32.51-9.13Q32.67-9.35 32.89-9.35L32.89-9.35Q33.11-9.35 33.3-9.13 33.49-8.91 33.33-8.69L33.33-8.69Q30.47-4.73 26.76-2.25 23.05 0.22 19.09 1.38 15.13 2.53 11.61 2.53ZM35.86 0.6L35.86 0.6Q34.32 0.6 33.16-0.11L33.16-0.11Q31.24-1.26 31.24-4.29L31.24-4.29Q31.24-5.55 31.68-7.21L31.68-7.21Q32.06-8.58 33.05-10.2 34.05-11.82 35.39-13.31 36.74-14.79 38.34-15.73 39.93-16.66 41.52-16.66L41.52-16.66Q42.19-16.66 42.68-16.5L42.68-16.5Q43.34-16.28 43.81-15.7 44.27-15.13 44.27-14.24L44.27-14.24Q44.27-13.31 43.81-13.2 43.34-13.09 43.34-13.42L43.34-13.42Q43.34-13.53 43.37-13.64 43.4-13.75 43.4-13.8L43.4-13.8Q43.4-14.24 43.15-14.6 42.9-14.96 42.24-14.96L42.24-14.96Q41.36-14.96 40.07-14.03 38.77-13.09 37.43-11.52 36.08-9.96 35.06-8.09 34.05-6.21 33.72-4.34L33.72-4.34Q33.66-4.07 33.63-3.82 33.61-3.58 33.61-3.3L33.61-3.3Q33.61-2.04 34.18-1.18 34.76-0.33 36.02-0.33L36.02-0.33Q37.56-0.33 39-1.51 40.42-2.69 41.55-4.34 42.68-6 43.23-7.26L43.23-7.26Q43.67-8.25 43.84-8.96 44-9.68 44-10.18L44-10.18Q44-10.62 43.92-10.95 43.84-11.28 43.73-11.49L43.73-11.49Q43.62-11.82 43.62-11.99L43.62-11.99Q43.62-12.43 43.97-12.71 44.33-12.98 44.72-12.98L44.72-12.98Q45.05-12.98 45.43-12.76L45.43-12.76Q45.87-12.65 46.64-12.6 47.41-12.54 48.29-12.54L48.29-12.54Q49.23-12.54 50.19-12.6 51.15-12.65 51.87-12.81L51.87-12.81Q51.98-12.87 52.2-12.87L52.2-12.87Q52.58-12.87 52.58-12.65L52.58-12.65Q52.58-12.43 52.2-12.27L52.2-12.27Q50.27-11.38 48.76-11.33 47.25-11.28 46.14-11.28L46.14-11.28Q46.26-9.9 45.54-8.33 44.83-6.76 44.05-5.55L44.05-5.55Q43.12-4.18 41.91-2.75 40.7-1.32 39.22-0.36 37.73 0.6 35.86 0.6ZM48.34 0.71L48.34 0.71Q47.96 0.71 48.13 0.33L48.13 0.33Q48.29 0 48.73-1.18 49.17-2.37 49.75-4.01 50.32-5.67 50.93-7.42 51.53-9.19 52.06-10.72 52.58-12.27 52.91-13.14L52.91-13.14Q53.02-13.47 53.13-14.11 53.24-14.74 53.6-15.26 53.95-15.79 54.84-15.79L54.84-15.79Q56.48-15.79 56.48-15.02L56.48-15.02Q56.48-14.74 56.21-14.08L56.21-14.08Q55.55-12.6 54.78-10.67 54.01-8.74 53.41-7.04 52.8-5.33 52.47-4.4L52.47-4.4Q53.02-5.17 54.26-6.6 55.49-8.03 57.03-9.68 58.57-11.33 60.25-12.87 61.93-14.41 63.39-15.37 64.84-16.34 65.89-16.34L65.89-16.34Q67.21-16.34 67.21-14.9L67.21-14.9Q67.21-14.41 66.94-13.42L66.94-13.42Q66.44-12.04 65.67-10.75 64.9-9.46 64.3-8.03L64.3-8.03Q63.25-5.45 63.09-3.85L63.09-3.85Q63.03-3.63 63.03-3.44 63.03-3.25 63.03-3.02L63.03-3.02Q63.03-0.82 64.52-0.82L64.52-0.82Q65.34-0.82 66.72-1.81 68.09-2.81 69.55-4.18 71-5.55 72.16-6.85 73.31-8.14 73.75-8.8L73.75-8.8Q73.92-8.96 74.08-8.96L74.08-8.96Q74.31-8.96 74.44-8.8 74.58-8.63 74.47-8.36L74.47-8.36Q73.97-7.42 72.79-6.02 71.61-4.62 70.18-3.22 68.75-1.81 67.38-0.82L67.38-0.82Q66.55-0.28 65.34 0.17 64.13 0.6 62.92 0.55L62.92 0.55Q61.38 0.39 60.72-0.52 60.06-1.43 60.06-2.69L60.06-2.69Q60.06-4.18 60.64-5.86 61.21-7.54 61.93-9.02 62.64-10.51 63.09-11.28L63.09-11.28Q63.52-12.15 63.52-12.65L63.52-12.65Q63.52-13.09 63.14-13.09L63.14-13.09Q62.75-13.09 61.98-12.6 61.21-12.1 59.89-10.89L59.89-10.89Q58.69-9.85 57.31-8.17 55.94-6.49 54.64-4.73 53.35-2.97 52.39-1.71 51.42-0.44 51.04-0.22L51.04-0.22Q50.77-0.06 49.8 0.33 48.84 0.71 48.34 0.71ZM75.57 0.55L75.57 0.55Q74.58 0.55 73.78 0.11 72.98-0.33 72.6-1.54L72.6-1.54Q72.55-1.71 72.52-1.87 72.49-2.04 72.49-2.25L72.49-2.25Q72.49-3.35 72.98-5 73.48-6.66 74.19-8.2L74.19-8.2Q73.86-7.75 73.42-7.12 72.98-6.49 72.16-5.5L72.16-5.5Q71.94-5.28 71.66-5.28L71.66-5.28Q71.28-5.28 71.28-5.72L71.28-5.72Q71.28-6.05 71.5-6.27L71.5-6.27Q72.93-8.09 74.06-9.52 75.19-10.95 75.73-11.94L75.73-11.94Q75.73-12.04 76.06-12.62 76.39-13.2 76.94-14.24L76.94-14.24Q76.5-14.19 76.2-14.16 75.9-14.13 75.68-14.13L75.68-14.13Q75.3-14.13 75.02-14.46 74.75-14.79 74.97-15.29L74.97-15.29Q75.24-16.06 76.17-16.17 77.11-16.28 77.83-16.34L77.83-16.34Q77.88-16.45 78.05-16.45L78.05-16.45Q78.7-17.66 79.31-18.81 79.91-19.96 80.33-20.73 80.74-21.5 80.74-21.56L80.74-21.56Q81.84-23.32 82.17-23.9 82.5-24.48 83.05-24.59L83.05-24.59Q83.66-24.64 84.34-24.53 85.03-24.42 85.25-24.04L85.25-24.04Q85.41-23.82 85.41-23.48L85.41-23.48Q85.41-22.99 85.19-22.52 84.97-22.05 84.75-21.78L84.75-21.78Q84.53-21.39 84.18-21.26 83.82-21.12 83.55-20.57L83.55-20.57Q83-19.52 82.33-18.32 81.67-17.11 80.96-16L80.96-16 81.62-16.06Q82.94-16.17 84.12-16.34 85.3-16.5 86.84-16.45L86.84-16.45Q87.12-16.45 87.42-16.36 87.72-16.28 87.72-16.11L87.72-16.11Q87.72-15.89 86.3-15.51L86.3-15.51Q85.75-15.29 83.9-15.04 82.06-14.79 80.13-14.57L80.13-14.57Q79.58-13.53 79.14-12.84 78.7-12.15 78.54-11.82L78.54-11.82Q77.33-9.29 76.37-7.23 75.41-5.17 75.3-3.85L75.3-3.85Q75.24-3.63 75.24-3.44 75.24-3.25 75.24-3.02L75.24-3.02Q75.24-0.82 76.67-0.82L76.67-0.82Q77.55-0.82 78.92-1.79 80.3-2.75 81.73-4.15 83.16-5.55 84.34-6.85 85.52-8.14 85.97-8.8L85.97-8.8Q86.13-8.96 86.3-8.96L86.3-8.96Q86.52-8.96 86.65-8.8 86.79-8.63 86.68-8.36L86.68-8.36Q86.19-7.42 85-6.02 83.82-4.62 82.36-3.22 80.91-1.81 79.53-0.82L79.53-0.82Q78.81-0.28 77.74 0.14 76.67 0.55 75.57 0.55ZM100.65 0.55L100.65 0.55Q99.71 0.55 98.92 0.11 98.12-0.33 97.73-1.54L97.73-1.54Q97.57-2.04 97.57-2.92L97.57-2.92Q97.57-4.13 97.9-5.61 98.23-7.09 98.61-8.14L98.61-8.14Q98.34-8.03 97.6-7.18 96.85-6.33 95.78-5.14 94.71-3.96 93.42-2.78 92.12-1.59 90.75-0.82 89.37-0.06 88.05-0.06L88.05-0.06Q87.17-0.06 86.18-0.58 85.19-1.1 84.59-1.93L84.59-1.93Q83.76-3.02 83.76-4.18L83.76-4.18Q83.76-5.67 84.78-7.26 85.8-8.86 87.42-10.37 89.04-11.88 90.89-13.12 92.73-14.36 94.41-15.21 96.08-16.06 97.13-16.34L97.13-16.34Q98.23-16.66 99.6-16.66L99.6-16.66Q100.37-16.66 101.2-16.47 102.02-16.28 102.57-15.84L102.57-15.84Q103.01-15.62 103.29-15.23 103.56-14.85 103.56-14.41L103.56-14.41Q103.56-13.97 103.18-14.13L103.18-14.13Q102.74-14.79 102-14.99 101.25-15.18 100.48-15.18L100.48-15.18Q98.28-15.18 95.64-13.75 93-12.32 90.91-10.39L90.91-10.39Q90.25-9.85 89.13-8.5 88-7.15 87.06-5.55 86.13-3.96 86.13-2.64L86.13-2.64Q86.13-1.93 86.51-1.38L86.51-1.38Q86.73-0.99 87.23-0.99L87.23-0.99Q88-0.99 89.29-1.81 90.58-2.64 91.96-3.82 93.33-5 94.46-6.11 95.59-7.21 96.08-7.7L96.08-7.7Q96.36-7.97 97.16-8.83 97.95-9.68 98.89-10.67 99.82-11.66 100.57-12.38 101.31-13.09 101.53-13.09L101.53-13.09Q101.8-13.09 102.44-12.95 103.07-12.81 103.51-12.54 103.95-12.27 103.67-11.82L103.67-11.82Q102.24-9.73 101.39-7.45 100.54-5.17 100.37-3.85L100.37-3.85Q100.32-3.63 100.32-3.44 100.32-3.25 100.32-3.02L100.32-3.02Q100.32-0.82 101.86-0.82L101.86-0.82Q102.68-0.82 104.06-1.81 105.43-2.81 106.86-4.18 108.29-5.55 109.48-6.85 110.66-8.14 111.1-8.8L111.1-8.8Q111.26-8.96 111.43-8.96L111.43-8.96Q111.65-8.96 111.81-8.77 111.98-8.58 111.81-8.3L111.81-8.3Q111.21-7.32 110.05-5.94 108.9-4.57 107.47-3.19 106.04-1.81 104.66-0.82L104.66-0.82Q103.95-0.28 102.85 0.14 101.75 0.55 100.65 0.55ZM116.71 0.6L116.71 0.6Q115.72 0.77 114.73 0.77L114.73 0.77Q112.31 0.77 110.71-0.39 109.12-1.54 109.12-3.74L109.12-3.74Q109.12-5.06 109.89-6.93L109.89-6.93Q110.44-8.2 111.92-9.85 113.41-11.49 115.39-13.06 117.37-14.63 119.4-15.65 121.44-16.66 123.09-16.66L123.09-16.66Q123.69-16.66 124.19-16.5L124.19-16.5Q124.79-16.28 125.23-15.89 125.67-15.51 125.67-14.74L125.67-14.74Q125.67-14.57 125.67-14.41 125.67-14.24 125.56-14.03L125.56-14.03Q125.56-13.86 125.32-13.31 125.07-12.76 124.77-12.35 124.46-11.94 124.24-12.15L124.24-12.15Q124.02-12.32 124.02-12.6L124.02-12.6Q124.02-12.87 124.16-13.23 124.3-13.59 124.3-13.86L124.3-13.86Q124.3-14.24 124.11-14.6 123.91-14.96 123.47-14.96L123.47-14.96Q122.43-14.96 120.78-14.03 119.13-13.09 117.4-11.52 115.66-9.96 114.29-8.09 112.91-6.21 112.36-4.34L112.36-4.34Q112.2-3.9 112.14-3.49 112.09-3.08 112.09-2.69L112.09-2.69Q112.09-1.49 112.89-0.96 113.68-0.44 114.84-0.44L114.84-0.44Q116.1-0.44 117.42-0.82L117.42-0.82Q121.16-1.93 123.5-3.85 125.84-5.78 128.2-8.8L128.2-8.8Q128.42-9.07 128.59-9.02 128.75-8.96 128.86-8.96L128.86-8.96Q129.03-8.91 129.03-8.63L129.03-8.63Q129.03-8.53 128.97-8.36 128.92-8.2 128.86-8.09L128.86-8.09Q126.5-4.9 123.64-2.5 120.78-0.11 116.71 0.6ZM130.07 0.55L130.07 0.55Q129.08 0.55 128.29 0.11 127.49-0.33 127.1-1.54L127.1-1.54Q127.05-1.71 127.02-1.87 126.99-2.04 126.99-2.25L126.99-2.25Q126.99-3.35 127.49-5 127.98-6.66 128.7-8.2L128.7-8.2Q128.37-7.75 127.93-7.12 127.49-6.49 126.66-5.5L126.66-5.5Q126.44-5.28 126.17-5.28L126.17-5.28Q125.78-5.28 125.78-5.72L125.78-5.72Q125.78-6.05 126-6.27L126-6.27Q127.43-8.09 128.56-9.52 129.69-10.95 130.24-11.94L130.24-11.94Q130.24-12.04 130.57-12.62 130.9-13.2 131.45-14.24L131.45-14.24Q131.01-14.19 130.71-14.16 130.4-14.13 130.18-14.13L130.18-14.13Q129.8-14.13 129.52-14.46 129.25-14.79 129.47-15.29L129.47-15.29Q129.74-16.06 130.68-16.17 131.61-16.28 132.33-16.34L132.33-16.34Q132.38-16.45 132.55-16.45L132.55-16.45Q133.21-17.66 133.81-18.81 134.42-19.96 134.83-20.73 135.24-21.5 135.24-21.56L135.24-21.56Q136.34-23.32 136.67-23.9 137-24.48 137.55-24.59L137.55-24.59Q138.16-24.64 138.85-24.53 139.53-24.42 139.75-24.04L139.75-24.04Q139.92-23.82 139.92-23.48L139.92-23.48Q139.92-22.99 139.7-22.52 139.48-22.05 139.26-21.78L139.26-21.78Q139.04-21.39 138.68-21.26 138.32-21.12 138.05-20.57L138.05-20.57Q137.5-19.52 136.84-18.32 136.18-17.11 135.46-16L135.46-16 136.12-16.06Q137.44-16.17 138.63-16.34 139.81-16.5 141.35-16.45L141.35-16.45Q141.62-16.45 141.93-16.36 142.23-16.28 142.23-16.11L142.23-16.11Q142.23-15.89 140.8-15.51L140.8-15.51Q140.25-15.29 138.41-15.04 136.56-14.79 134.64-14.57L134.64-14.57Q134.09-13.53 133.65-12.84 133.21-12.15 133.04-11.82L133.04-11.82Q131.83-9.29 130.87-7.23 129.91-5.17 129.8-3.85L129.8-3.85Q129.74-3.63 129.74-3.44 129.74-3.25 129.74-3.02L129.74-3.02Q129.74-0.82 131.17-0.82L131.17-0.82Q132.05-0.82 133.43-1.79 134.8-2.75 136.23-4.15 137.66-5.55 138.85-6.85 140.03-8.14 140.47-8.8L140.47-8.8Q140.63-8.96 140.8-8.96L140.8-8.96Q141.02-8.96 141.16-8.8 141.29-8.63 141.18-8.36L141.18-8.36Q140.69-7.42 139.51-6.02 138.32-4.62 136.87-3.22 135.41-1.81 134.03-0.82L134.03-0.82Q133.32-0.28 132.25 0.14 131.17 0.55 130.07 0.55ZM174.51 10.34L174.51 10.34Q172.53 10.34 171.54 8.8 170.55 7.26 170.22 5L170.22 5Q170.11 4.18 170.03 3.27 169.95 2.37 169.95 1.38L169.95 1.38Q169.95-0.55 170.17-2.78 170.39-5 170.77-7.37L170.77-7.37Q168.68-5.33 166.24-3.38 163.79-1.43 161.18-0.17 158.56 1.1 155.92 1.1L155.92 1.1Q154.55 1.1 153.48 0.28 152.4-0.55 152.13-2.48L152.13-2.48Q152.07-2.86 152.05-3.22 152.02-3.58 152.02-3.96L152.02-3.96Q152.02-6.38 152.84-9.02 153.67-11.66 154.91-14.33 156.14-17 157.44-19.58 158.73-22.16 159.61-24.36L159.61-24.36Q159.72-24.53 159.72-24.67 159.72-24.8 159.72-24.86L159.72-24.86Q159.72-25.08 159.55-25.08L159.55-25.08Q159.22-25.08 158.34-24.36L158.34-24.36Q156.47-22.82 154.49-21.73 152.51-20.63 150.81-20.52L150.81-20.52 150.75-20.52Q150.26-20.52 150.26-20.84L150.26-20.84Q150.26-21.34 150.97-21.45L150.97-21.45Q151.91-21.56 153.26-22.3 154.6-23.05 156.09-24.14 157.57-25.25 158.92-26.43 160.27-27.61 161.23-28.6 162.19-29.59 162.47-30.14L162.47-30.14Q162.58-30.41 163.27-30.64 163.95-30.86 164.61-30.86L164.61-30.86Q165.22-30.86 165.66-30.69 166.1-30.52 165.99-30.14L165.99-30.14Q165.6-29.54 164.53-27.75 163.46-25.96 162.06-23.46 160.65-20.96 159.25-18.09 157.85-15.23 156.78-12.46 155.7-9.68 155.26-7.42L155.26-7.42Q155.15-6.71 155.1-6.08 155.04-5.45 155.04-4.84L155.04-4.84Q155.04-2.64 155.81-1.73 156.58-0.82 157.74-0.82L157.74-0.82Q159.17-0.82 160.9-1.62 162.63-2.42 164.42-3.71 166.21-5 167.91-6.49 169.62-7.97 170.99-9.35L170.99-9.35Q171.54-12.93 172.34-16.34 173.14-19.75 174.05-22.61 174.95-25.46 175.83-27.23L175.83-27.23Q177.15-30.09 178.97-31.76 180.78-33.44 183.31-33.33L183.31-33.33Q185.18-33.16 185.9-32.17 186.61-31.18 186.61-29.86L186.61-29.86Q186.61-28.88 186.28-27.77L186.28-27.77Q185.57-25.36 184.06-22.91 182.54-20.46 180.67-18.09 178.8-15.73 176.93-13.53 175.06-11.33 173.58-9.4L173.58-9.4Q173.3-7.92 173.06-6.02 172.81-4.13 172.67-2.31 172.53-0.49 172.53 0.82L172.53 0.82Q172.53 6.16 174.35 8.42L174.35 8.42Q175.01 9.24 175.89 9.24L175.89 9.24Q176.55 9.24 177.04 8.69L177.04 8.69Q177.26 8.25 177.7 7.81L177.7 7.81Q178.03 7.48 178.25 7.48L178.25 7.48Q178.64 7.48 178.47 8.2L178.47 8.2Q178.42 8.42 178.23 8.72 178.03 9.02 177.76 9.29L177.76 9.29Q177.37 9.79 176.38 10.06 175.39 10.34 174.51 10.34ZM174.4-12.87L174.4-12.87Q176.38-14.74 178.45-17.43 180.51-20.13 182.19-23.1 183.86-26.07 184.58-28.71L184.58-28.71Q184.69-29.15 184.74-29.56 184.8-29.98 184.8-30.3L184.8-30.3Q184.8-31.9 183.81-31.9L183.81-31.9Q182.98-31.9 181.77-30.64L181.77-30.64Q178.75-27.28 177.13-22.74 175.5-18.21 174.4-12.87ZM181.39 2.75L181.39 2.75Q179.19 2.75 179.19 1.54L179.19 1.54Q179.19 0.66 180.12-0.28L180.12-0.28Q180.84-0.99 181.72-1.43 182.6-1.87 182.82-1.87L182.82-1.87Q183.09-1.87 183.12-1.65 183.15-1.43 182.87-1.32L182.87-1.32Q182.32-0.99 181.64-0.41 180.95 0.17 180.95 0.82L180.95 0.82Q180.95 1.71 181.99 1.71L181.99 1.71Q183.26 1.71 184.63 0.96 186.01 0.22 187.19-0.94 188.37-2.09 189.12-3.27 189.86-4.46 189.86-5.33L189.86-5.33Q189.86-6.05 189.36-6.66 188.87-7.26 187.33-8.09L187.33-8.09Q186.28-8.69 185.32-9.35 184.36-10.01 183.86-10.95L183.86-10.95Q183.42-10.18 182.74-9.1 182.05-8.03 181.11-6.88L181.11-6.88Q180.78-6.54 180.45-6.54L180.45-6.54Q180.12-6.54 180.12-6.82L180.12-6.82Q180.12-6.99 180.4-7.37L180.4-7.37Q181.88-9.13 182.6-10.62 183.31-12.1 183.59-12.87L183.59-12.87Q183.81-14.46 185.07-15.89 186.34-17.32 188.15-18.4 189.97-19.47 191.87-20.07 193.76-20.68 195.25-20.68L195.25-20.68Q196.73-20.68 197.89-20.13 199.04-19.58 199.04-18.37L199.04-18.37Q199.04-17.71 198.66-16.94L198.66-16.94Q198.16-15.89 197.01-15.07L197.01-15.07Q196.95-15.02 196.84-15.02L196.84-15.02Q196.4-15.02 196.4-15.4L196.4-15.4Q196.4-15.68 196.68-15.95L196.68-15.95Q197.12-16.34 197.39-16.89 197.67-17.43 197.67-17.93L197.67-17.93Q197.67-18.92 196.51-18.92L196.51-18.92Q195.3-18.92 193.35-18.26 191.4-17.6 189.75-16.55L189.75-16.55Q187.88-15.35 186.61-13.92 185.35-12.48 185.35-11.38L185.35-11.38Q185.35-10.84 185.71-10.37 186.06-9.9 187.11-9.29L187.11-9.29Q187.66-8.96 188.65-8.44 189.64-7.92 190.35-7.48L190.35-7.48Q192.61-6.11 192.61-4.57L192.61-4.57Q192.61-3.3 191.51-2.01 190.41-0.71 188.68 0.36 186.94 1.43 185.02 2.09 183.09 2.75 181.39 2.75Z" transform="translate(-1.159999966621399, 33.336761474609375)"></path></g> <!----> <!----> <!----> <!----> <!----> <!----> <!----></g></g> <!----></g><defs v-gra="od"></defs></svg>