<svg xmlns="http://www.w3.org/2000/svg" version="1.1" xmlns:xlink="http://www.w3.org/1999/xlink" xmlns:svgjs="http://svgjs.dev/svgjs" width="1440" height="560" preserveAspectRatio="none" viewBox="0 0 1440 560"><g mask="url(&quot;#SvgjsMask1005&quot;)" fill="none"><path d="M1128.4568598430772 90.67520800665412L1130.1967097819713 190.35114424917168 1229.8726460244889 188.61129431027757 1228.1327960855947 88.93535806776z" fill="rgba(28, 83, 142, 0.4)" class="triangle-float1"></path><path d="M767.9638860130573 56.71991119566935L684.1641045761043-16.12612743937239 611.3180659410625 67.67365399758066 695.1178473780155 140.5196926326224z" fill="rgba(28, 83, 142, 0.4)" class="triangle-float3"></path><path d="M858.431,521.023C915.887,520.941,977.372,512.546,1009.027,464.597C1043.526,412.341,1043.389,343.162,1011.381,289.344C980.03,236.629,919.692,208.419,858.431,211.381C801.88,214.116,758.132,254.373,729.122,302.993C699.186,353.164,677.284,414.779,707.086,465.029C736.495,514.616,800.779,521.106,858.431,521.023" fill="rgba(28, 83, 142, 0.4)" class="triangle-float1"></path><path d="M1277.2250444848567 418.2992966089846L1230.344651373497 330.13010057861084 1142.1754553431233 377.0104936899704 1189.0558484544829 465.1796897203442z" fill="rgba(28, 83, 142, 0.4)" class="triangle-float3"></path><path d="M1259.6136989516829 45.884815402138834L1258.0448919233302 135.7617098625345 1347.9217863837257 137.33051689088725 1349.4905934120786 47.4536224304916z" fill="rgba(28, 83, 142, 0.4)" class="triangle-float2"></path><path d="M1055.474,383.151C1100.609,384.013,1143.244,360.039,1165.287,320.643C1186.852,282.102,1181.652,235.39,1159.54,197.16C1137.461,158.988,1099.56,131.769,1055.474,130.787C1009.696,129.767,965.221,152.27,943.056,192.337C921.505,231.295,930.093,278.223,952.693,316.583C974.9,354.277,1011.733,382.316,1055.474,383.151" fill="rgba(28, 83, 142, 0.4)" class="triangle-float2"></path><path d="M100.87727471576505 578.0045509547631L233.24197189776746 645.4477327836169 300.68515372662114 513.0830356016144 168.32045654461876 445.6398537727607z" fill="rgba(28, 83, 142, 0.4)" class="triangle-float1"></path><path d="M13.851666433513117 299.28046976985104L-42.5782330644892 420.29477976697586 78.43607693263564 476.7246792649782 134.86597643063794 355.71036926785337z" fill="rgba(28, 83, 142, 0.4)" class="triangle-float3"></path><path d="M205.77838375805865 120.20916405482572L122.273074497481 0.951223081948001 3.0151335246032716 84.45653234252565 86.52044278518093 203.71447331540338z" fill="rgba(28, 83, 142, 0.4)" class="triangle-float1"></path></g><defs><mask id="SvgjsMask1005"><rect width="1440" height="560" fill="#ffffff"></rect></mask><style>
                @keyframes float1 {
                    0%{transform: translate(0, 0)}
                    50%{transform: translate(-10px, 0)}
                    100%{transform: translate(0, 0)}
                }

                .triangle-float1 {
                    animation: float1 5s infinite;
                }

                @keyframes float2 {
                    0%{transform: translate(0, 0)}
                    50%{transform: translate(-5px, -5px)}
                    100%{transform: translate(0, 0)}
                }

                .triangle-float2 {
                    animation: float2 4s infinite;
                }

                @keyframes float3 {
                    0%{transform: translate(0, 0)}
                    50%{transform: translate(0, -10px)}
                    100%{transform: translate(0, 0)}
                }

                .triangle-float3 {
                    animation: float3 6s infinite;
                }
            </style></defs></svg>