<?xml version="1.0" encoding="utf-8"?>
<!-- Generator: Adobe Illustrator 27.5.0, SVG Export Plug-In . SVG Version: 6.00 Build 0)  -->
<svg version="1.1" xmlns="http://www.w3.org/2000/svg" xmlns:xlink="http://www.w3.org/1999/xlink" x="0px" y="0px"
	 viewBox="0 0 500 500" style="enable-background:new 0 0 500 500;" xml:space="preserve">
<g id="BACKGROUND">
	<rect style="fill:transparent;" width="500" height="500"/>
</g>
<g id="OBJECTS">
	<g>
		<g>
			<path style="fill:#3f8bdd;" d="M290.2,115.541c-5.676-9.369-22.153-1.121-28.228,2.366
				c-10.871,6.231-17.156,18.126-27.158,24.335c-9.993,6.204-26.464,5.727-38.08,6.621c-26.142,2.01-54.465,2.581-74.049,20.774
				c-17.528,16.283-24.419,44.953-12.896,68.85c5.999,12.441,14.152,20.235,27.637,23.337c5.023,1.155,11.109,0.854,15.417-0.541
				c2.857-0.925,2.961-4.857,0.166-5.953c-20.429-8.011-18.776-52.973-7.997-67.826c17.149-23.63,46.849-24.233,73.872-29.436
				c2.602-0.501,4.596,2.252,3.339,4.585c-17.887,33.21-26.993,71.559-36.748,108.319c-9.411,35.461-17.156,85.728-45.616,110.277
				c-10.286,8.873-20.834,18.055-33.794,7.176c-19.412-16.295,4.759-62.792,11.986-75.62c1.002-1.779,0.07-4.036-1.9-4.571
				c-7.223-1.96-23.129-4.251-34.036,9.118c-0.229,0.28-0.41,0.602-0.536,0.941c-2.343,6.303-4.035,12.891-5.078,19.53
				c-4.388,27.938,5.091,67.891,41.119,66.166c74.531-3.568,92.808-106.831,105.95-164.208c3.977-17.362,7.991-34.745,13.064-51.732
				c2.663-8.918,5.527-17.757,9.223-26.222c4.264-9.767,5.495-11.301,14.283-15.875C267.718,142.006,298.538,129.304,290.2,115.541z
				"/>
			<path style="fill:#3f8bdd;" d="M338.146,167.515c2.531-0.457,4.512,2.149,3.395,4.465l-9.348,19.388
				c-9.914,20.302-9.085,24.953-6.311,25.29c3.919,0.494,13.854-10.029,21.267-23.405c0.618-1.116,1.831-1.768,3.1-1.633
				l0.369,0.039c2.248,0.24,3.523,2.712,2.41,4.679c-13.298,23.507-25.881,34.606-36.507,36.396
				c-11.764,1.983-15.2-7.493-9.252-22.705l15.216-38.183c0.402-1.009,1.296-1.74,2.365-1.933L338.146,167.515z M333.252,141.322
				c6.345-7.102,14.938-10.559,19.564-7.05c4.891,3.063,3.436,12.023-2.776,19.235c-6.212,7.079-15.202,10.603-19.695,7.072
				C325.586,157.225,327.038,148.669,333.252,141.322z"/>
			<g>
				<g>
					<path style="fill:#3f8bdd;" d="M283.576,163.895c7.439-1.13,13.392,1.109,17.993,6.623c0.083,0.1,0.164,0.206,0.239,0.313
						c1.654,2.368,2.859,4.805,3.541,7.322c2.052,7.577,1.071,16.88-2.883,27.827l0.077,0.285
						c4.804-2.488,9.759-9.303,11.886-12.472c0.846-1.26,2.489-1.786,3.863-1.143c1.697,0.794,2.157,2.36,2.458,3.709
						c0.167,0.746,0.065,1.533-0.304,2.203c-5.446,9.881-13.592,17.262-24.441,22.146c-0.548,0.246-1.016,0.649-1.342,1.154
						c-8.354,12.928-19.21,20.373-32.625,22.412l-0.626,0.094c-7.507,1.141-13.345-0.877-17.573-5.965
						c-1.558-1.849-2.8-4.34-3.652-7.482c-2.662-9.827-0.532-22.787,6.287-38.999c0.506-1.204,1.721-1.962,3.026-1.915
						c1.028,0.036,1.934,0.08,2.72,0.128c1.379,0.084,2.661-0.731,3.138-2.028c5.165-14.044,14.088-22.064,26.656-23.972
						L283.576,163.895z M257.031,223.704c-0.345,2.715-0.287,6.291,2.68,7.532c2.181,0.912,5.355,0.994,9.046-4.032
						c1.125-1.532,0.613-3.715-1.061-4.615c-1.761-0.946-3.677-2.229-5.259-3.36c-1.803-1.289-4.335-0.361-4.883,1.788
						C257.327,221.904,257.145,222.809,257.031,223.704z M268.577,209.088c2.058,4.252,4.838,6.116,6.881,6.933
						c1.47,0.588,3.138-0.061,3.897-1.451c5.352-9.807,10.13-20.732,9.092-31.671c-0.213-2.245-0.77-4.621-2.598-6.221
						c-6.993-6.118-14.231,7.574-16.122,12.16C267.409,194.463,265.627,202.994,268.577,209.088z"/>
				</g>
			</g>
			<path style="fill:#3f8bdd;" d="M421.174,188.86c-0.648-0.881-1.973-1.888-3.307-2.767c-1.799-1.186-4.236-0.252-4.774,1.835
				c-1.286,4.986-3.807,13.279-7.227,17.489c-6.92,8.519-17.077,11.866-9.116-11.267l5.213-14.462
				c0.019-0.052,0.04-0.105,0.063-0.156c5.374-12.267,2.857-21.057-4.794-21.641c-3.222-0.157-9.553,1.123-16.721,5.762
				c-0.936,0.606-2.091-0.359-1.648-1.382l0.01-0.023c0.345-0.797-0.304-1.668-1.166-1.564l-16.496,1.975
				c-1.151,0.138-2.133,0.897-2.556,1.976l-23.299,59.378c-0.87,2.216,0.94,4.558,3.304,4.276l13.023-1.554
				c1.182-0.141,2.184-0.937,2.588-2.057l14.118-39.123c0.106-0.293,0.253-0.576,0.438-0.826c5.804-7.86,13.962-8.596,11.62-0.682
				c-2.512,8.6-4.891,15.168-5.157,20.843c-0.662,13.382,5.548,20.766,20.132,16.247c6.34-1.964,12.384-7.37,18.088-14.499
				C417.67,201.435,422.435,190.575,421.174,188.86z"/>
			<path style="fill:#3f8bdd;" d="M365.306,324.246c-0.375-3.083-1.091-6.131-2.041-9.054c-1.967-6.051-6.306-11.584-7.17-17.941
				c-0.035-0.255-0.068-0.764-0.081-1.578c-0.009-0.61,0.154-1.217,0.478-1.734c2.797-4.46,9.979-11.347,8.301-16.464
				c-0.597-1.82-2.143-3.224-3.9-3.986c-15.566-6.756-19.687,17.539-18.29,27.822l0.061,0.451
				c-15.435,21.273-23.867,29.286-30.327,26.108c-3.03-1.491-5.131-6.779-2.304-18.483c4.598-19.029,22.198-44.169,24.865-53.835
				c0.23-0.834,0.069-1.726-0.387-2.461c-3.325-5.353-8.93-7.176-12.828-6.611c-0.912,0.132-1.729,0.635-2.229,1.41
				c-6.646,10.305-11.672,23.47-17.483,40.351l-0.192,0.173c0,0-3.56,11.349-3.56,11.349c-4.002,11.642-8.931,23.184-15.491,33.635
				c-2.305,3.672-5.986,13.943-11.349,13.865c-8.371-0.121-3.03-23.02-1.753-27.628c4.704-16.974,10.565-36.658,21.928-50.492
				c1.562-1.902,4.354-2.593,6.119-4.395c5.587-5.703,5.352-15.407-2.242-19.219c-7.604-3.817-14.631,6.126-18.834,11.548
				c-0.389,0.502-0.91,0.888-1.516,1.077c-4.204,1.309-9.039,1.548-14.568,1.822c-6.839,0.339-14.688,0.389-23.623,3.18
				c-10.788,3.369-16.842,13.014-15.201,24.717c1.501,10.706,10.781,13.995,16.532,15.004c2.048,0.359,3.949-1.284,3.747-3.354
				c-0.531-5.452,1.228-12.152,3.861-16.609c4.563-7.724,14.403-10.539,20.287-11.995c0.959-0.237,1.741,0.783,1.251,1.64
				c-1.659,2.903-3.519,7.482-4.209,8.793c-2.309,4.385-4.505,8.831-6.519,13.36c-3.998,8.988-7.338,18.318-9.343,27.964
				c-2.369,11.398-7.421,46.246,11.633,46.246h0.081c8.941-0.091,18.491-7.994,29.458-27.21c1.113-1.95,3.837-2.149,5.219-0.38
				c1.501,1.92,3.611,2.971,6.104,3.149c15.17,1.086,32.814-19.791,40.695-30.153c1.605-2.111,4.937-1.425,5.568,1.151l0.001,0.005
				c0.503,2.114,1.208,4.126,1.43,6.316c0.581,5.724-0.244,15.008-7.662,15.008h-0.752c-1.549,0-3.005-0.983-4.367-2.95
				c-0.389-0.562-1.182-0.662-1.684-0.197c-2.869,2.657-11.018,10.204-11.022,10.208c-1.202,1.113,11.592,7.201,12.873,7.507
				c4.874,1.165,10.077,0.968,14.853-0.549c7.128-2.264,13.986-8.316,15.361-15.943
				C365.718,331.376,365.737,327.787,365.306,324.246z"/>
			<path style="fill:#3f8bdd;" d="M377.817,327.385c-4.568,1.084-8.29,5.463-8.415,10.143c-0.372,4.84,3.003,7.432,7.48,6.372
				c4.747-1.134,8.314-5.377,8.662-10.304C385.693,329.005,382.564,326.252,377.817,327.385z"/>
			<path style="fill:#E2C675;" d="M379.456,319.414l4.453-1.198c1.024-0.276,1.839-1.042,2.171-2.05
				c2.909-8.832,16.978-51.714,22.126-70.494c0.616-2.247-1.335-4.354-3.623-3.916c-4.614,0.882-11.324,2.166-14.734,2.818
				c-1.299,0.248-2.301,1.279-2.512,2.585c-2.654,16.435-9.408,55.048-11.799,68.673
				C375.139,318.101,377.232,320.012,379.456,319.414z"/>
		</g>
		<g>
			<path style="fill:#FFFFFF;" d="M285.411,111.774c-5.676-9.369-22.153-1.122-28.228,2.366
				c-10.871,6.231-17.157,18.126-27.158,24.335c-9.993,6.204-26.463,5.727-38.08,6.621c-26.142,2.01-54.465,2.581-74.049,20.774
				c-17.528,16.283-24.419,44.953-12.896,68.85c5.999,12.442,14.152,20.235,27.637,23.337c5.023,1.155,11.109,0.854,15.417-0.541
				c2.856-0.925,2.961-4.857,0.166-5.953c-20.428-8.011-18.776-52.973-7.997-67.826c17.149-23.63,46.849-24.233,73.872-29.436
				c2.602-0.501,4.596,2.252,3.339,4.585c-17.887,33.21-26.993,71.559-36.748,108.319c-9.411,35.461-17.157,85.728-45.616,110.277
				c-10.286,8.873-20.834,18.055-33.794,7.176c-19.412-16.295,4.759-62.792,11.986-75.62c1.002-1.779,0.07-4.036-1.9-4.571
				c-7.223-1.96-23.129-4.252-34.036,9.118c-0.228,0.28-0.41,0.602-0.536,0.941c-2.343,6.303-4.035,12.891-5.078,19.53
				c-4.388,27.938,5.091,67.891,41.119,66.167c74.531-3.568,92.808-106.831,105.949-164.208
				c3.977-17.362,7.991-34.745,13.064-51.732c2.663-8.918,5.527-17.757,9.223-26.222c4.264-9.767,5.495-11.3,14.283-15.875
				C262.93,138.239,293.75,125.537,285.411,111.774z"/>
			<path style="fill:#FFFFFF;" d="M333.358,163.749c2.531-0.457,4.512,2.149,3.395,4.465l-9.348,19.388
				c-9.914,20.302-9.085,24.953-6.311,25.29c3.919,0.494,13.854-10.029,21.267-23.405c0.619-1.116,1.831-1.768,3.1-1.633
				l0.369,0.039c2.248,0.24,3.523,2.712,2.41,4.68c-13.298,23.507-25.881,34.606-36.507,36.396
				c-11.764,1.983-15.2-7.493-9.252-22.705l15.216-38.183c0.402-1.009,1.296-1.74,2.365-1.933L333.358,163.749z M328.464,137.555
				c6.345-7.102,14.938-10.559,19.564-7.05c4.891,3.063,3.436,12.023-2.776,19.236c-6.212,7.079-15.202,10.603-19.695,7.072
				C320.798,153.458,322.25,144.902,328.464,137.555z"/>
			<g>
				<g>
					<path style="fill:#FFFFFF;" d="M278.788,160.128c7.439-1.131,13.392,1.109,17.993,6.623c0.083,0.1,0.164,0.206,0.239,0.313
						c1.654,2.368,2.859,4.805,3.541,7.322c2.052,7.576,1.071,16.88-2.883,27.827l0.077,0.285
						c4.804-2.488,9.759-9.303,11.886-12.472c0.846-1.26,2.488-1.786,3.863-1.142c1.697,0.794,2.157,2.36,2.458,3.709
						c0.167,0.747,0.065,1.533-0.304,2.203c-5.446,9.881-13.592,17.262-24.442,22.146c-0.548,0.247-1.016,0.649-1.342,1.154
						c-8.353,12.929-19.21,20.373-32.625,22.412l-0.626,0.094c-7.507,1.141-13.345-0.877-17.573-5.965
						c-1.558-1.849-2.8-4.34-3.651-7.482c-2.662-9.827-0.533-22.787,6.287-38.999c0.506-1.204,1.721-1.962,3.026-1.915
						c1.028,0.036,1.934,0.08,2.72,0.128c1.379,0.084,2.661-0.731,3.138-2.028c5.165-14.044,14.088-22.064,26.656-23.972
						L278.788,160.128z M252.243,219.937c-0.345,2.715-0.287,6.291,2.68,7.532c2.181,0.912,5.355,0.994,9.046-4.032
						c1.125-1.532,0.613-3.715-1.061-4.615c-1.761-0.946-3.677-2.229-5.259-3.36c-1.803-1.289-4.335-0.361-4.883,1.787
						C252.539,218.137,252.357,219.043,252.243,219.937z M263.788,205.321c2.058,4.252,4.838,6.116,6.881,6.933
						c1.47,0.588,3.138-0.061,3.897-1.451c5.352-9.807,10.13-20.732,9.092-31.671c-0.213-2.245-0.77-4.621-2.598-6.221
						c-6.993-6.118-14.232,7.574-16.122,12.161C262.621,190.696,260.839,199.227,263.788,205.321z"/>
				</g>
			</g>
			<path style="fill:#FFFFFF;" d="M416.386,185.093c-0.648-0.881-1.973-1.888-3.307-2.767c-1.799-1.186-4.236-0.252-4.774,1.835
				c-1.286,4.986-3.807,13.279-7.227,17.489c-6.92,8.519-17.077,11.866-9.116-11.267l5.213-14.462
				c0.019-0.052,0.04-0.105,0.063-0.156c5.374-12.266,2.857-21.057-4.793-21.641c-3.222-0.157-9.553,1.124-16.721,5.762
				c-0.936,0.606-2.091-0.359-1.648-1.382l0.01-0.023c0.345-0.797-0.304-1.667-1.166-1.564l-16.496,1.975
				c-1.151,0.138-2.133,0.897-2.556,1.976l-23.299,59.378c-0.869,2.216,0.94,4.558,3.304,4.276l13.023-1.554
				c1.182-0.141,2.184-0.937,2.588-2.057l14.118-39.123c0.106-0.293,0.253-0.576,0.438-0.826c5.804-7.86,13.962-8.596,11.62-0.682
				c-2.512,8.6-4.891,15.168-5.157,20.843c-0.662,13.382,5.548,20.766,20.133,16.247c6.34-1.964,12.384-7.37,18.088-14.499
				C412.882,197.668,417.647,186.809,416.386,185.093z"/>
			<path style="fill:#FFFFFF;" d="M360.518,320.479c-0.375-3.083-1.091-6.131-2.041-9.054c-1.967-6.051-6.306-11.584-7.17-17.941
				c-0.035-0.254-0.068-0.764-0.08-1.578c-0.009-0.61,0.154-1.217,0.478-1.734c2.797-4.46,9.979-11.347,8.301-16.465
				c-0.597-1.82-2.143-3.223-3.9-3.986c-15.566-6.756-19.687,17.539-18.29,27.822l0.061,0.451
				c-15.435,21.273-23.867,29.286-30.327,26.108c-3.03-1.491-5.131-6.779-2.304-18.483c4.598-19.029,22.198-44.169,24.865-53.835
				c0.23-0.834,0.069-1.726-0.387-2.461c-3.325-5.353-8.931-7.176-12.829-6.611c-0.912,0.132-1.729,0.635-2.229,1.41
				c-6.646,10.305-11.672,23.47-17.483,40.351l-0.192,0.173c0,0-3.56,11.348-3.56,11.349c-4.002,11.642-8.931,23.184-15.491,33.635
				c-2.305,3.672-5.986,13.942-11.349,13.865c-8.371-0.121-3.03-23.02-1.753-27.628c4.704-16.974,10.565-36.658,21.928-50.492
				c1.562-1.902,4.354-2.593,6.12-4.395c5.587-5.703,5.352-15.407-2.242-19.219c-7.604-3.817-14.631,6.126-18.834,11.548
				c-0.389,0.502-0.91,0.888-1.516,1.077c-4.204,1.309-9.039,1.548-14.568,1.822c-6.839,0.339-14.689,0.39-23.623,3.18
				c-10.788,3.369-16.842,13.014-15.201,24.717c1.501,10.706,10.781,13.995,16.532,15.004c2.049,0.359,3.949-1.285,3.747-3.354
				c-0.531-5.452,1.228-12.152,3.861-16.609c4.562-7.724,14.403-10.539,20.287-11.995c0.959-0.237,1.741,0.783,1.251,1.64
				c-1.659,2.903-3.519,7.482-4.209,8.793c-2.308,4.385-4.504,8.832-6.519,13.36c-3.998,8.988-7.338,18.318-9.343,27.964
				c-2.369,11.398-7.421,46.246,11.633,46.246h0.081c8.941-0.091,18.491-7.995,29.458-27.21c1.113-1.95,3.837-2.149,5.219-0.38
				c1.501,1.92,3.611,2.971,6.104,3.149c15.17,1.086,32.814-19.791,40.695-30.153c1.605-2.111,4.937-1.425,5.568,1.151l0.001,0.005
				c0.503,2.114,1.208,4.126,1.43,6.316c0.581,5.724-0.244,15.007-7.662,15.007h-0.752c-1.549,0-3.005-0.983-4.367-2.95
				c-0.389-0.562-1.182-0.662-1.684-0.197c-2.869,2.657-11.018,10.204-11.022,10.208c-1.202,1.113,11.592,7.201,12.873,7.507
				c4.874,1.165,10.077,0.968,14.853-0.549c7.128-2.264,13.986-8.316,15.361-15.943C360.93,327.609,360.949,324.02,360.518,320.479z
				"/>
			<path style="fill:#FFFFFF;" d="M373.029,323.619c-4.568,1.084-8.29,5.463-8.415,10.142c-0.372,4.84,3.003,7.432,7.48,6.372
				c4.747-1.134,8.314-5.377,8.662-10.304C380.905,325.238,377.776,322.485,373.029,323.619z"/>
			<path style="fill:#FFFFFF;" d="M374.668,315.647l4.453-1.198c1.024-0.276,1.839-1.042,2.171-2.05
				c2.909-8.832,16.978-51.714,22.126-70.494c0.616-2.247-1.335-4.354-3.623-3.916c-4.614,0.882-11.324,2.166-14.734,2.818
				c-1.299,0.249-2.301,1.279-2.512,2.585c-2.654,16.436-9.408,55.048-11.799,68.674
				C370.351,314.334,372.444,316.245,374.668,315.647z"/>
		</g>
		<g>
			<path style="fill:#FFFFFF;" d="M230.471,180.515c2.663-8.918,5.527-17.757,9.223-26.222c4.264-9.767,5.495-11.301,14.283-15.875
				c7.58-3.945,38.4-16.647,30.062-30.41c-5.676-9.369-22.153-1.122-28.228,2.366c-10.871,6.231-17.156,18.126-27.158,24.335
				c-9.993,6.204-26.464,5.727-38.08,6.621c-26.142,2.01-54.465,2.581-74.049,20.774c-17.528,16.283-24.418,44.953-12.896,68.85
				c5.999,12.442,14.152,20.236,27.637,23.337c5.023,1.155,11.109,0.854,15.417-0.541c2.856-0.925,2.961-4.857,0.165-5.953
				c-20.428-8.011-18.776-52.973-7.997-67.826c17.149-23.63,46.849-24.233,73.872-29.436c2.602-0.501,4.596,2.252,3.339,4.585
				c-17.887,33.21-26.993,71.559-36.748,108.319c-9.411,35.461-17.157,85.728-45.616,110.277
				c-10.286,8.873-20.834,18.055-33.794,7.176c-19.412-16.295,4.759-62.792,11.986-75.62c1.002-1.779,0.07-4.036-1.901-4.571
				c-7.223-1.96-23.129-4.252-34.036,9.117c-0.228,0.28-0.41,0.602-0.536,0.941c-2.342,6.303-4.035,12.891-5.078,19.53
				c-4.387,27.938,5.091,67.892,41.119,66.167c74.531-3.568,92.808-106.831,105.95-164.208
				C221.384,214.885,225.398,197.501,230.471,180.515z"/>
			<path style="fill:#FFFFFF;" d="M324.184,153.046c4.493,3.532,13.483,0.007,19.695-7.072c6.212-7.213,7.667-16.172,2.776-19.235
				c-4.626-3.51-13.219-0.052-19.564,7.05C320.878,141.136,319.425,149.691,324.184,153.046z"/>
			<path style="fill:#FFFFFF;" d="M415.013,181.326c-0.648-0.881-1.973-1.888-3.307-2.767c-1.799-1.186-4.236-0.252-4.774,1.835
				c-1.286,4.986-3.807,13.279-7.227,17.489c-6.92,8.519-17.077,11.866-9.116-11.267l5.213-14.462
				c0.019-0.052,0.04-0.105,0.062-0.156c5.374-12.266,2.857-21.057-4.794-21.641c-3.222-0.157-9.553,1.123-16.721,5.761
				c-0.936,0.606-2.091-0.359-1.648-1.382l0.01-0.023c0.345-0.797-0.304-1.668-1.166-1.564l-16.496,1.975
				c-1.151,0.138-2.133,0.897-2.556,1.976l-10.939,27.877c-0.22,0.216-0.412,0.465-0.566,0.744
				c-7.414,13.377-17.349,23.9-21.267,23.405c-2.774-0.337-3.603-4.988,6.311-25.29l9.348-19.388
				c1.117-2.316-0.864-4.922-3.395-4.465l-13.296,2.4c-1.069,0.193-1.963,0.924-2.365,1.933l-9.652,24.221
				c-2.511,3.447-6.447,8.203-10.29,10.194l-0.077-0.285c3.954-10.947,4.935-20.25,2.883-27.827
				c-0.682-2.516-1.887-4.954-3.541-7.321c-0.074-0.106-0.156-0.213-0.239-0.313c-4.601-5.514-10.554-7.753-17.993-6.623
				l-1.563,0.238c-12.568,1.908-21.491,9.928-26.656,23.972c-0.477,1.297-1.758,2.113-3.137,2.028
				c-0.786-0.048-1.692-0.092-2.72-0.128c-1.305-0.046-2.52,0.712-3.026,1.916c-6.819,16.212-8.949,29.173-6.287,38.999
				c0.851,3.143,2.094,5.634,3.651,7.482c4.228,5.088,10.067,7.106,17.573,5.965l0.626-0.094
				c13.415-2.039,24.271-9.483,32.625-22.412c0.326-0.504,0.794-0.907,1.342-1.154c3.446-1.551,6.616-3.356,9.517-5.411
				c-3.243,12.073,0.661,19.184,11,17.441c6.33-1.066,13.356-5.439,20.813-13.768l-1.979,5.043c-0.87,2.216,0.94,4.558,3.303,4.276
				l13.023-1.554c1.182-0.141,2.184-0.937,2.588-2.057l14.118-39.123c0.106-0.293,0.253-0.576,0.438-0.826
				c5.804-7.86,13.962-8.596,11.62-0.682c-2.512,8.6-4.891,15.168-5.157,20.843c-0.662,13.382,5.548,20.766,20.133,16.247
				c6.339-1.964,12.383-7.37,18.088-14.499C411.509,193.901,416.274,183.042,415.013,181.326z M262.596,219.67
				c-3.691,5.026-6.865,4.945-9.046,4.032c-2.967-1.241-3.025-4.817-2.68-7.532c0.114-0.894,0.296-1.8,0.522-2.688
				c0.548-2.148,3.08-3.077,4.883-1.787c1.582,1.131,3.498,2.414,5.259,3.36C263.209,215.955,263.721,218.138,262.596,219.67z
				 M273.193,207.037c-0.759,1.39-2.426,2.039-3.897,1.451c-2.043-0.817-4.823-2.682-6.881-6.933
				c-2.949-6.094-1.168-14.625,1.15-20.249c1.89-4.587,9.128-18.278,16.122-12.161c1.828,1.6,2.385,3.976,2.598,6.221
				C283.323,186.305,278.545,197.23,273.193,207.037z"/>
			<path style="fill:#FFFFFF;" d="M357.104,307.659c-1.967-6.051-6.305-11.584-7.17-17.941c-0.035-0.254-0.068-0.764-0.08-1.578
				c-0.01-0.61,0.154-1.217,0.478-1.733c2.797-4.46,9.979-11.347,8.301-16.465c-0.597-1.82-2.143-3.223-3.9-3.986
				c-15.566-6.756-19.687,17.539-18.29,27.822l0.061,0.451c-15.435,21.273-23.867,29.286-30.327,26.108
				c-3.03-1.491-5.131-6.779-2.304-18.483c4.597-19.029,22.198-44.169,24.865-53.835c0.23-0.834,0.069-1.726-0.387-2.461
				c-3.325-5.353-8.931-7.176-12.829-6.611c-0.912,0.132-1.729,0.635-2.229,1.41c-6.646,10.305-11.672,23.47-17.483,40.351
				l-0.192,0.173c0,0-3.56,11.349-3.56,11.35c-4.002,11.642-8.931,23.184-15.491,33.634c-2.305,3.672-5.986,13.943-11.349,13.865
				c-8.371-0.121-3.03-23.02-1.753-27.628c4.704-16.974,10.565-36.658,21.928-50.493c1.562-1.901,4.354-2.593,6.119-4.395
				c5.587-5.703,5.352-15.407-2.242-19.219c-7.604-3.817-14.631,6.126-18.834,11.548c-0.389,0.502-0.91,0.888-1.516,1.077
				c-4.204,1.309-9.039,1.548-14.568,1.822c-6.839,0.339-14.689,0.389-23.623,3.18c-10.788,3.369-16.842,13.014-15.201,24.717
				c1.501,10.706,10.781,13.995,16.532,15.004c2.049,0.359,3.949-1.285,3.747-3.354c-0.531-5.452,1.228-12.152,3.861-16.609
				c4.562-7.724,14.403-10.54,20.286-11.995c0.959-0.237,1.741,0.782,1.251,1.64c-1.659,2.903-3.519,7.482-4.209,8.793
				c-2.308,4.385-4.504,8.832-6.519,13.36c-3.998,8.988-7.338,18.318-9.343,27.964c-2.369,11.398-7.421,46.246,11.633,46.246h0.081
				c8.941-0.091,18.491-7.995,29.458-27.21c1.113-1.95,3.837-2.149,5.219-0.38c1.501,1.92,3.611,2.971,6.104,3.149
				c15.17,1.086,32.814-19.791,40.695-30.153c1.605-2.111,4.937-1.425,5.568,1.151l0.001,0.005c0.503,2.114,1.208,4.126,1.43,6.316
				c0.581,5.724-0.244,15.007-7.662,15.007h-0.752c-1.549,0-3.005-0.983-4.367-2.95c-0.389-0.562-1.182-0.662-1.684-0.197
				c-2.869,2.657-11.018,10.204-11.022,10.208c-1.202,1.113,11.592,7.201,12.873,7.507c4.874,1.166,10.077,0.968,14.853-0.549
				c7.128-2.264,13.986-8.316,15.361-15.944c0.631-3.501,0.651-7.09,0.22-10.632C358.77,313.629,358.054,310.582,357.104,307.659z"
				/>
			<path style="fill:#FFFFFF;" d="M371.656,319.852c-4.568,1.084-8.29,5.463-8.415,10.142c-0.372,4.84,3.003,7.432,7.48,6.372
				c4.747-1.134,8.314-5.377,8.662-10.304C379.532,321.471,376.404,318.718,371.656,319.852z"/>
			<path style="fill:#FFFFFF;" d="M398.422,234.223c-4.614,0.882-11.324,2.166-14.734,2.818c-1.299,0.248-2.301,1.279-2.512,2.585
				c-2.654,16.436-9.408,55.048-11.799,68.673c-0.398,2.268,1.695,4.179,3.919,3.581l4.453-1.198
				c1.024-0.275,1.839-1.042,2.171-2.05c2.909-8.832,16.978-51.714,22.126-70.494C402.661,235.892,400.71,233.785,398.422,234.223z"
				/>
		</g>
		<path style="fill:#3f8bdd;" d="M424.487,113.409l-1.329-8.302c-0.324-2.021-3.232-2.021-3.556,0l-1.329,8.302
			c-1.038,6.483-6.122,11.567-12.605,12.605l-8.301,1.329c-2.021,0.324-2.021,3.232,0,3.556l8.301,1.329
			c6.483,1.038,11.567,6.122,12.605,12.605l1.329,8.301c0.324,2.021,3.232,2.021,3.556,0l1.329-8.301
			c1.038-6.483,6.122-11.567,12.605-12.605l8.301-1.329c2.021-0.324,2.021-3.232,0-3.556l-8.301-1.329
			C430.609,124.977,425.525,119.893,424.487,113.409z"/>
		<path style="fill:#3f8bdd;" d="M210.965,382.255l-1.382-8.635c-0.337-2.102-3.362-2.102-3.698,0l-1.382,8.635
			c-1.08,6.744-6.368,12.032-13.111,13.111l-8.635,1.382c-2.102,0.337-2.102,3.362,0,3.698l8.635,1.382
			c6.744,1.079,12.032,6.367,13.111,13.111l1.382,8.635c0.337,2.102,3.362,2.102,3.698,0l1.382-8.635
			c1.079-6.744,6.367-12.032,13.111-13.111l8.634-1.382c2.102-0.337,2.102-3.362,0-3.698l-8.634-1.382
			C217.333,394.287,212.045,388.999,210.965,382.255z"/>
		<path style="fill:#3f8bdd;" d="M155.268,101.406l-0.762-4.761c-0.186-1.159-1.854-1.159-2.039,0l-0.762,4.761
			c-0.595,3.718-3.511,6.634-7.23,7.23l-4.761,0.762c-1.159,0.186-1.159,1.854,0,2.039l4.761,0.762
			c3.719,0.595,6.634,3.511,7.23,7.229l0.762,4.761c0.186,1.159,1.854,1.159,2.039,0l0.762-4.761
			c0.595-3.718,3.511-6.634,7.23-7.229l4.761-0.762c1.159-0.185,1.159-1.854,0-2.039l-4.761-0.762
			C158.779,108.04,155.863,105.124,155.268,101.406z"/>
		<path style="fill:#E2C675;" d="M70.643,238.362l-1.435-8.965c-0.349-2.183-3.491-2.183-3.84,0l-1.435,8.965
			c-1.121,7.002-6.611,12.492-13.613,13.613l-8.965,1.435c-2.183,0.35-2.183,3.491,0,3.84l8.965,1.435
			c7.002,1.121,12.492,6.611,13.613,13.613l1.435,8.965c0.349,2.183,3.491,2.183,3.84,0l1.435-8.965
			c1.121-7.002,6.611-12.492,13.613-13.613l8.965-1.435c2.183-0.349,2.183-3.491,0-3.84l-8.965-1.435
			C77.255,250.854,71.764,245.363,70.643,238.362z"/>
		<path style="fill:#3f8bdd;" d="M421.932,306.042l-0.918-5.732c-0.223-1.396-2.232-1.396-2.455,0l-0.918,5.732
			c-0.717,4.477-4.227,7.987-8.704,8.704l-5.732,0.918c-1.396,0.223-1.396,2.232,0,2.455l5.732,0.918
			c4.477,0.717,7.987,4.227,8.704,8.704l0.918,5.732c0.223,1.396,2.232,1.396,2.455,0l0.918-5.732
			c0.717-4.477,4.227-7.987,8.704-8.704l5.732-0.918c1.396-0.223,1.396-2.232,0-2.455l-5.732-0.918
			C426.159,314.029,422.649,310.518,421.932,306.042z"/>
		<path style="fill:#3f8bdd;" d="M317.474,378.519l-0.613-3.832c-0.149-0.933-1.492-0.933-1.641,0l-0.613,3.832
			c-0.479,2.993-2.826,5.34-5.819,5.819l-3.832,0.613c-0.933,0.149-0.933,1.492,0,1.642l3.832,0.613
			c2.993,0.479,5.34,2.826,5.819,5.819l0.613,3.832c0.149,0.933,1.492,0.933,1.641,0l0.613-3.832
			c0.479-2.993,2.826-5.34,5.819-5.819l3.832-0.613c0.933-0.149,0.933-1.492,0-1.642l-3.832-0.613
			C320.3,383.859,317.953,381.512,317.474,378.519z"/>
	</g>
</g>
</svg>
