<?xml version="1.0" standalone="no"?>
<!DOCTYPE svg PUBLIC "-//W3C//DTD SVG 20010904//EN"
 "http://www.w3.org/TR/2001/REC-SVG-20010904/DTD/svg10.dtd">
<svg data-v-6805eed4="" version="1.0" xmlns="http://www.w3.org/2000/svg" xmlns:xlink="http://www.w3.org/1999/xlink" width="100%" height="100%" viewBox="0 0 340.000000 250.000000" preserveAspectRatio="xMidYMid meet" color-interpolation-filters="sRGB" style="margin: auto;"> <rect data-v-6805eed4="" x="0" y="0" width="100%" height="100%" fill="transparent" fill-opacity="1" class="background"></rect> <rect data-v-6805eed4="" x="0" y="0" width="100%" height="100%" fill="url(#watermark)" fill-opacity="1" class="watermarklayer"></rect> <g data-v-6805eed4="" fill="#FFFFFF" class="icon-text-wrapper icon-svg-group iconsvg" transform="translate(82.56499481201172,68.11958312988281)"><g class="iconsvg-imagesvg" transform="translate(46.43500518798828,0)"><g><rect fill="#333" fill-opacity="0" stroke-width="2" x="0" y="0" width="60" height="60.84884133664622" class="image-rect"></rect> <svg x="0" y="0" width="60" height="60.84884133664622" filtersec="colorsb9869284605" class="image-svg-svg primary" style="overflow: visible;"><svg xmlns="http://www.w3.org/2000/svg" viewBox="0.13044722378253937 0.0027426481246948242 182.73129272460938 185.31674194335938"><path d="M105 125.53c-.17 2.31-.28 5.05-.57 7.78-.57 5.44-4.49 8.95-9.45 8.55s-8.31-4.39-8.06-9.67a92.23 92.23 0 0 0-.36-16.94 74.94 74.94 0 0 0-18-39.9C56.41 61.38 41 53.1 22.76 50.13c-2.86-.46-5.79-.57-8.7-.76-5.34-.33-9.17-4.2-8.92-9.1.27-5.17 4.28-8.74 9.76-8.51a89.74 89.74 0 0 1 31.56 6.76q42.55 18.1 55.3 62.63C104 109 104.74 117 105 125.53z" fill="#de7a11"></path><path d="M158.11 124c-.06 19.94-3.38 37.9-10.32 55.17-2 5.11-6.63 7.26-11.44 5.45-4.52-1.7-6.71-6.52-4.9-11.51a149.59 149.59 0 0 0 6.45-21.72 130.75 130.75 0 0 0 2.34-35.26 129 129 0 0 0-22-63.59c-3.08-4.59-2-10 2.25-12.71s9.33-1.48 12.36 3a146.13 146.13 0 0 1 23.45 59.6 170.7 170.7 0 0 1 1.81 21.57z" fill="#c20815"></path><path d="M182.65 98.74c0 5.09-3.45 9-7.69 9.25-4.86.35-8.84-2.58-9.58-7.17a156.45 156.45 0 0 0-30.27-70.51 153.56 153.56 0 0 0-13.3-15.21A8.75 8.75 0 0 1 130.19.41 9 9 0 0 1 134.41 3a172.63 172.63 0 0 1 38.79 59.78 176.49 176.49 0 0 1 9.05 32.85c.22 1.22.32 2.47.4 3.11z" fill="#892e90"></path><path d="M51.65 126.05c0 18.6-13.95 35.05-33.35 38.55-2.21.4-4.38 1-6.65.26a8.8 8.8 0 0 1-6.49-9.21 8.6 8.6 0 0 1 8.09-8.09A22.88 22.88 0 0 0 33.69 129c2.22-11.17-6-23.73-17.23-25.74-1.15-.21-2.29-.45-3.44-.62-5.37-.79-8.46-4.89-7.71-10.26.65-4.69 5-7.6 10.05-7.14a40.38 40.38 0 0 1 36.29 40.79z" fill="#20a094"></path><path d="M131.39 125.1a120.53 120.53 0 0 1-7 40.17c-1.83 5.13-6.57 7.59-11.25 5.89s-6.76-6.43-5-11.44a105.72 105.72 0 0 0 5.45-44.72 99.71 99.71 0 0 0-4.84-22.63c-1.64-5 .63-9.93 5.17-11.4 4.89-1.57 9.51.88 11.2 6a122.89 122.89 0 0 1 6.27 38.13z" fill="#c20815"></path><path d="M15.14 5.19c25 1.15 47.3 8.63 67.09 23.18C84.64 30.14 87 32 89.25 34c3.75 3.38 4.12 8.45 1.08 12a8.33 8.33 0 0 1-12.21 1 104.74 104.74 0 0 0-33.64-19 94.83 94.83 0 0 0-29-5.28c-3.35-.05-6.46-.76-8.52-3.78a8.31 8.31 0 0 1-.63-9A8.49 8.49 0 0 1 14 5.2c.53-.03 1.12-.01 1.14-.01z" fill="#892e90"></path><path d="M17 58.55C33.2 59.83 48.36 66.81 60.59 80A61.35 61.35 0 0 1 70 93.14c2.43 4.61 1.1 9.65-3.16 12.16s-9.33 1.18-12-3.46c-5.55-9.58-13.06-17-23.21-21.52a45.52 45.52 0 0 0-16.84-4.12c-6.72-.28-10.61-4.9-9.42-11C6.22 60.9 10 58.36 17 58.55z" fill="#78b83a"></path><path d="M71.21 153a7.41 7.41 0 0 1-1.21 4.25A66 66 0 0 1 42.85 184a8.72 8.72 0 0 1-11.92-3.15 8.59 8.59 0 0 1 3.38-12.05 52.8 52.8 0 0 0 20.86-20.89 8.37 8.37 0 0 1 9.72-3.71 8.57 8.57 0 0 1 6.32 8.8zM159.13 176.15c-.19-2.55 1.14-5 1.87-7.49a183.18 183.18 0 0 0 4.28-18.94c.85-4.77 5-8.14 9.55-7.61a8.71 8.71 0 0 1 7.83 9.58c-.85 8-2.94 15.82-5.19 23.55-.42 1.44-.82 2.88-1.36 4.27a9 9 0 0 1-9.75 5.71 8.78 8.78 0 0 1-7.23-9.07zM173.91 33.06a7.82 7.82 0 0 1-7.17-3.76c-3.48-5.3-7.1-10.45-10.74-15.58a8.69 8.69 0 0 1 1.92-11.84c3.55-2.75 8.89-2.53 11.76 1a103.71 103.71 0 0 1 12.25 17.86c2.95 5.71-1.48 12.36-8.02 12.32z" fill="#20a094"></path><path d="M10.73 135.93a10.73 10.73 0 1 1 .27-21.46 10.73 10.73 0 1 1-.22 21.46z" fill="#78b83a"></path></svg></svg> <!----></g></g> <g transform="translate(0,62.84884262084961)"><g data-gra="path-name" fill-rule="" class="tp-name iconsvg-namesvg" transform="translate(0,0)"><g transform="scale(1)"><g><path d="M25.11-27.33Q22.69-28.86 20.1-29.62 17.51-30.39 15.34-30.39L15.34-30.39Q12.33-30.39 10.53-29.23 8.73-28.07 8.73-26.05L8.73-26.05Q8.73-24.22 9.82-23.06 10.9-21.9 12.48-21.24 14.06-20.57 16.87-19.68L16.87-19.68Q20.37-18.6 22.54-17.61 24.71-16.62 26.24-14.68 27.77-12.73 27.77-9.52L27.77-9.52Q27.77-6.56 26.17-4.34 24.57-2.12 21.68-0.91 18.79 0.3 15.05 0.3L15.05 0.3Q11.25 0.3 7.65-1.18 4.04-2.66 1.43-5.13L1.43-5.13 3.55-9.22Q6.02-6.81 9.1-5.5 12.18-4.19 15.09-4.19L15.09-4.19Q18.55-4.19 20.55-5.55 22.54-6.91 22.54-9.22L22.54-9.22Q22.54-11.05 21.46-12.23 20.37-13.42 18.72-14.11 17.07-14.8 14.26-15.64L14.26-15.64Q10.8-16.67 8.63-17.66 6.46-18.65 4.96-20.57 3.45-22.49 3.45-25.65L3.45-25.65Q3.45-28.41 4.98-30.53 6.51-32.66 9.27-33.79 12.04-34.92 15.69-34.92L15.69-34.92Q18.79-34.92 21.78-34.01 24.76-33.1 27.08-31.57L27.08-31.57 25.11-27.33ZM34.88 0L34.88-26.09 39.46-26.09 39.46 0 34.88 0ZM37.14-36.5Q38.38-36.5 39.19-35.66 40.01-34.83 40.01-33.54L40.01-33.54Q40.01-32.26 39.19-31.42 38.38-30.58 37.14-30.58L37.14-30.58Q35.91-30.58 35.1-31.42 34.28-32.26 34.28-33.54L34.28-33.54Q34.28-34.83 35.1-35.66 35.91-36.5 37.14-36.5L37.14-36.5ZM68.12-36.6L72.71-36.6 72.71 0 68.12 0 68.12-5.18Q66.64-2.57 64.15-1.16 61.66 0.25 58.36 0.25L58.36 0.25Q54.66 0.25 51.82-1.46 48.98-3.16 47.4-6.19 45.83-9.22 45.83-13.12L45.83-13.12Q45.83-16.97 47.4-19.95 48.98-22.94 51.82-24.61 54.66-26.29 58.31-26.29L58.31-26.29Q61.66-26.29 64.18-24.91 66.69-23.53 68.12-20.92L68.12-20.92 68.12-36.6ZM59.29-3.7Q61.86-3.7 63.86-4.88 65.85-6.07 66.99-8.19 68.12-10.31 68.12-12.97L68.12-12.97Q68.12-15.69 66.99-17.81 65.85-19.93 63.86-21.11 61.86-22.3 59.29-22.3L59.29-22.3Q56.73-22.3 54.73-21.09 52.73-19.88 51.6-17.76 50.46-15.64 50.46-12.97L50.46-12.97Q50.46-10.31 51.6-8.19 52.73-6.07 54.73-4.88 56.73-3.7 59.29-3.7L59.29-3.7ZM105.71 0L100.19 0 91.85-12.68 86.77-7.4 86.77 0 82.18 0 82.18-36.6 86.77-36.6 86.77-13.27 99.4-26.09 104.77-26.09 95.06-15.98 105.71 0ZM119.92-26.24Q125.99-26.24 129.09-22.67 132.2-19.09 132.2-12.73L132.2-12.73Q132.2-11.74 132.15-11.25L132.15-11.25 111.53-11.25Q112.07-7.74 114.47-5.67 116.86-3.6 120.36-3.6L120.36-3.6Q122.68-3.6 124.68-4.44 126.68-5.28 128.16-6.81L128.16-6.81 130.67-4.19Q128.75-2.12 126.03-0.99 123.32 0.15 120.02 0.15L120.02 0.15Q116.17 0.15 113.18-1.5 110.2-3.16 108.55-6.17 106.9-9.18 106.9-13.02L106.9-13.02Q106.9-16.87 108.55-19.85 110.2-22.84 113.16-24.54 116.12-26.24 119.92-26.24L119.92-26.24ZM111.48-14.8L128.06-14.8Q127.86-18.35 125.69-20.4 123.52-22.44 119.97-22.44L119.97-22.44Q116.51-22.44 114.22-20.37 111.93-18.3 111.48-14.8L111.48-14.8ZM138.47 0L138.47-26.09 143.05-26.09 143.05 0 138.47 0ZM140.73-36.5Q141.97-36.5 142.78-35.66 143.6-34.83 143.6-33.54L143.6-33.54Q143.6-32.26 142.78-31.42 141.97-30.58 140.73-30.58L140.73-30.58Q139.5-30.58 138.69-31.42 137.87-32.26 137.87-33.54L137.87-33.54Q137.87-34.83 138.69-35.66 139.5-36.5 140.73-36.5L140.73-36.5ZM166.48-26.24Q171.07-26.24 173.69-23.55 176.3-20.87 176.3-16.13L176.3-16.13 176.3 0 171.71 0 171.71-14.9Q171.71-18.2 169.86-20.05 168.01-21.9 164.76-21.9L164.76-21.9Q161.26-21.85 159.06-19.66 156.86-17.46 156.57-13.96L156.57-13.96 156.57 0 151.98 0 151.98-26.09 156.57-26.09 156.57-20.57Q159.18-26.14 166.48-26.24L166.48-26.24Z" transform="translate(-1.4300000667572021, 36.599998474121094)"></path></g> <!----> <!----> <!----> <!----> <!----> <!----> <!----></g></g> <g data-gra="path-slogan" fill-rule="" class="tp-slogan iconsvg-slogansvg" fill="#FFFFFF" transform="translate(65.10000419616699,42.89999771118164)"><!----> <!----> <g transform="scale(2, 2)"><g transform="scale(1)"><path d="M0.28-7.87L1.94 0L3.13 0L4.30-4.74C4.36-5.04 4.43-5.34 4.49-5.63C4.56-5.93 4.63-6.22 4.69-6.53L4.74-6.53C4.80-6.22 4.87-5.93 4.93-5.63C4.99-5.34 5.05-5.04 5.12-4.74L6.31 0L7.51 0L9.14-7.87L8.18-7.87L7.36-3.59C7.28-3.16 7.20-2.74 7.13-2.32C7.06-1.90 6.98-1.48 6.91-1.04L6.86-1.04C6.77-1.48 6.67-1.90 6.58-2.33C6.48-2.75 6.38-3.17 6.29-3.59L5.20-7.87L4.28-7.87L3.19-3.59C3.10-3.16 3.01-2.74 2.92-2.32C2.82-1.90 2.73-1.48 2.64-1.04L2.59-1.04C2.52-1.48 2.44-1.90 2.36-2.32C2.28-2.73 2.21-3.16 2.14-3.59L1.31-7.87ZM10.51-7.87L10.51 0L15.17 0L15.17-0.85L11.51-0.85L11.51-3.71L14.50-3.71L14.50-4.56L11.51-4.56L11.51-7.03L15.05-7.03L15.05-7.87ZM16.84-7.87L16.84 0L19.34 0C19.78 0 20.19-0.05 20.56-0.14C20.92-0.24 21.24-0.38 21.50-0.58C21.77-0.77 21.97-1.01 22.12-1.30C22.26-1.58 22.33-1.92 22.33-2.30C22.33-2.85 22.17-3.28 21.85-3.59C21.53-3.90 21.08-4.10 20.51-4.19L20.51-4.24C20.97-4.36 21.32-4.57 21.54-4.89C21.76-5.21 21.88-5.56 21.88-5.95C21.88-6.30 21.81-6.59 21.68-6.83C21.55-7.08 21.36-7.28 21.13-7.43C20.89-7.58 20.61-7.69 20.27-7.76C19.94-7.84 19.58-7.87 19.18-7.87ZM19.00-4.51L17.83-4.51L17.83-7.08L19.04-7.08C19.66-7.08 20.12-6.99 20.43-6.80C20.74-6.61 20.89-6.30 20.89-5.87C20.89-5.43 20.75-5.09 20.45-4.86C20.16-4.63 19.68-4.51 19.00-4.51ZM19.20-0.79L17.83-0.79L17.83-3.77L19.20-3.77C19.90-3.77 20.43-3.65 20.80-3.43C21.16-3.20 21.35-2.84 21.35-2.35C21.35-1.82 21.16-1.42 20.78-1.17C20.41-0.92 19.88-0.79 19.20-0.79ZM23.89-7.87L23.89 0L24.89 0L24.89-3.71L28.55-3.71L28.55 0L29.56 0L29.56-7.87L28.55-7.87L28.55-4.57L24.89-4.57L24.89-7.87ZM31.68-7.87L31.68-3.25C31.68-2.62 31.75-2.09 31.90-1.66C32.04-1.22 32.24-0.87 32.49-0.61C32.74-0.34 33.04-0.15 33.39-0.03C33.74 0.09 34.11 0.14 34.51 0.14C34.91 0.14 35.28 0.09 35.63-0.03C35.97-0.15 36.27-0.34 36.52-0.61C36.77-0.87 36.97-1.22 37.12-1.66C37.26-2.09 37.33-2.62 37.33-3.25L37.33-7.87L36.37-7.87L36.37-3.23C36.37-2.76 36.32-2.36 36.23-2.04C36.13-1.72 36-1.46 35.83-1.27C35.66-1.08 35.47-0.94 35.24-0.86C35.02-0.77 34.78-0.73 34.51-0.73C34.26-0.73 34.02-0.77 33.79-0.86C33.57-0.94 33.37-1.08 33.21-1.27C33.05-1.46 32.92-1.72 32.82-2.04C32.72-2.36 32.68-2.76 32.68-3.23L32.68-7.87ZM39.46-7.87L39.46 0L41.96 0C42.40 0 42.81-0.05 43.18-0.14C43.54-0.24 43.86-0.38 44.12-0.58C44.39-0.77 44.59-1.01 44.74-1.30C44.88-1.58 44.95-1.92 44.95-2.30C44.95-2.85 44.79-3.28 44.47-3.59C44.15-3.90 43.70-4.10 43.13-4.19L43.13-4.24C43.59-4.36 43.94-4.57 44.16-4.89C44.38-5.21 44.50-5.56 44.50-5.95C44.50-6.30 44.43-6.59 44.30-6.83C44.17-7.08 43.98-7.28 43.75-7.43C43.51-7.58 43.23-7.69 42.89-7.76C42.56-7.84 42.20-7.87 41.80-7.87ZM41.62-4.51L40.45-4.51L40.45-7.08L41.66-7.08C42.28-7.08 42.74-6.99 43.05-6.80C43.36-6.61 43.51-6.30 43.51-5.87C43.51-5.43 43.37-5.09 43.07-4.86C42.78-4.63 42.30-4.51 41.62-4.51ZM41.82-0.79L40.45-0.79L40.45-3.77L41.82-3.77C42.52-3.77 43.05-3.65 43.42-3.43C43.78-3.20 43.97-2.84 43.97-2.35C43.97-1.82 43.78-1.42 43.40-1.17C43.03-0.92 42.50-0.79 41.82-0.79Z" transform="translate(-0.276, 7.872)"></path></g></g></g></g></g><defs v-gra="od"></defs></svg>
