<?xml version="1.0" standalone="no"?>
<!DOCTYPE svg PUBLIC "-//W3C//DTD SVG 20010904//EN"
 "http://www.w3.org/TR/2001/REC-SVG-20010904/DTD/svg10.dtd">
<svg data-v-0dd9719b="" version="1.0" xmlns="http://www.w3.org/2000/svg" xmlns:xlink="http://www.w3.org/1999/xlink" width="50%" height="50%" viewBox="0 0 340.000000 250.000000" preserveAspectRatio="xMidYMid meet" color-interpolation-filters="sRGB" style="margin: auto;"> <rect data-v-0dd9719b="" x="0" y="0" width="50%" height="50%" fill="transparent" fill-opacity="1" class="background"></rect> <!----> <g data-v-0dd9719b="" fill="#fff" class="icon-text-wrapper icon-svg-group iconsvg" transform="translate(38.385009765625,91.87999725341797)"><g class="iconsvg-imagesvg" transform="translate(0,3.118803024291992)"><g><rect fill="#fff" fill-opacity="0" stroke-width="2" x="0" y="0" width="30" height="30.00240009600384" class="image-rect"></rect> <svg x="170" y="0" width="60" height="60.00240009600384" filtersec="colorsb7583429372" class="image-svg-svg primary" style="overflow: visible;"><svg xmlns="http://www.w3.org/2000/svg" viewBox="0 0 113.38258361816406 113.3869857788086"><path d="M61.66.1c.62 0 1.11.11 2.3.27a18.29 18.29 0 0 0 3.04.3l-.9-.14c-2-.25-2-.25-3-.33L61.54.09zM71.17 1.55c3.24 1 6.29 2.54 9.52 3.57a26.62 26.62 0 0 0-6.85-3c-2.78-.71-2.78-.71-4.26-1l-.33-.06a18.47 18.47 0 0 1 1.92.5zM47.92 1c-1.3.43-1.66 1-.85 1.34C49.68 3.35 56.81.91 56.67 0L55 .06c-1.82.11-1.85.11-2.8.2l-2.56.31a10.67 10.67 0 0 0-1.72.43zM56.56 2.82c.38 3.76 10.56 5.74 13 2.52 1.16-1.55-.77-3.83-5.91-4.81-7.31-1.17-7.06 2.15-7 2.29zM73.61 8.63c4 6.3 14.78 9.45 15.57 5.68a3.08 3.08 0 0 0-.18-1.56 32.38 32.38 0 0 0-4.2-4.54 27.77 27.77 0 0 0-5.69-3.12C71 2 72.61 6.57 73 7.52a9.06 9.06 0 0 0 .59 1.11zM25.38 9.75a2.75 2.75 0 0 0-.63.53l.11.06a45 45 0 0 0 6.26-3.19c4.18-2.32 6.68-3.67 9.35-4.54A58.82 58.82 0 0 0 26.8 8.83l-1.09.69-.33.23z" fill="#075368"></path><path d="M30.13 9.14c-2.33 2.5-1.68 4.33 1.47 4.18C39 13 46.79 4.81 44.54 3a1.67 1.67 0 0 0-.49-.22c-2.71-.49-10.66 2.83-13.92 6.34zM41.83 13.2c-1 5.88 8.61 8.48 15.08 4.09 4.6-3.11 5-8.86-1.15-11.12C49 4.3 42.52 9.09 41.83 13.2zM61.83 21c1.37 8.17 14.19 12.21 19 6C83.71 23.4 82 17.15 75 13.62c-8.56-3.56-14.11 1.93-13.19 7.4zM84.92 33.35c1.25 6.54 7.39 13.09 13.45 11.72v-.35a62.28 62.28 0 0 0-2.93-19.39c-7.85-4.49-11.74 1.67-10.52 8zM12.12 21.92A57.63 57.63 0 0 1 17.54 16c-1.62 1.65-3.72 3.91-5.21 5.66l-.21.27z" fill="#075368"></path><path d="M10.67 24.37C8.31 28.12 8 30.6 9.91 30.13 14.39 29 24.91 15.23 23 13c-1.7-.75-8.84 5.86-12.32 11.41zM17.55 28.77c-1.34 6.83 5.27 9.36 12 4.59C36 28.76 38.87 19.45 33 16.87c-6.15-1.72-14.15 5.48-15.41 11.9zM35.82 35.91c.63 9.28 12.11 12.49 18.9 5.28 4.24-4.5 5.34-13.12-2.51-16.94-8.73-3.18-16.89 4.1-16.39 11.66zM59.23 47c1.07 10.07 12.82 14.26 19.33 6.9 4.3-4.84 4.14-13.2-2.93-17.93C66 30.87 58.4 39.12 59.23 47zM81.18 60.89c-.39 8 5.4 14.25 12.71 10.14a82.19 82.19 0 0 0 4-17.76c-.34-.45-.83-1-1.21-1.45-6.83-6-15.07.32-15.51 9.07zM.25 51.31C.51 49.46 5.16 33.18 7 29.51A53.57 53.57 0 0 0 3.21 38a54.75 54.75 0 0 0-2.4 9.1l-.56 4.22zM2.36 49.54C2.26 56 5 58.93 8.24 55.76 13 51.12 15.47 36.91 11 34c-4.15-1.52-8.52 7.74-8.64 15.51zM14.73 55.78c2 9 11.63 10.7 16.35 3 3.2-5.23 3.34-14.63-3.7-18.07-8-2.69-14.5 6.84-12.65 15.09zM35.85 63.86C38.3 73 49.62 76.47 54.72 67.22 57 63.12 57.77 55 50.21 50.83c-9.13-3.84-16.58 4.74-14.36 13zM57.49 74.38c.92 8.75 9.42 13 15.85 5.16 3.08-3.74 5.43-11.07-.74-15.92-8-4.87-16 2.36-15.11 10.76zM3.33 75.67C4.17 77.92 4.54 78 4.72 78c1.44-.92-2.29-19.78-4-22.74a1.17 1.17 0 0 0-.3-.24c-.16.09-.4.22-.39 2.32a55.22 55.22 0 0 0 1.81 13.55c.43 1.41 1 3.29 1.45 4.67v.11zM7.86 76.3C11 82.28 16.41 85.24 18 80s-1.24-16-7.2-18.88c-5.97-1.83-6.86 7.76-2.94 15.18zM23.35 81.79c4.23 6.61 13.11 10.09 14.75 2 .73-3.58-.19-12.09-7.65-15.45-8.16-2.64-11.58 5.32-7.66 12.51.16.29.39.66.56.94zM42.6 88.9c2.61 5.32 10.4 11.62 13.5 2.1.29-.9 2.61-8.85-4.4-13.11-6.87-3.19-12.46 2.79-9.5 10.11.11.27.27.63.4.89zM16.33 96.15A69.61 69.61 0 0 1 5.73 81.3c1.09 2 2.61 4.67 3.84 6.61a55.07 55.07 0 0 0 5.91 7.36l1.05 1.09-.2-.21z" fill="#075368"></path><path d="M16.67 95.67c4 3.66 7.86 5.31 7.7 3.83-.18-1.75-9.88-14.06-14.26-16.25-2.45-.82-1 2.42-.49 3.44a34.06 34.06 0 0 0 7.05 9zM27.67 99.05c4.43 3.15 10.82 5.54 10.7 3.52-.09-1.44-6.57-11.74-13.82-14.4C20 87 20.17 90.29 21.77 93a20.35 20.35 0 0 0 5.9 6zM42.75 103.22c2.31 1.67 9.61 5.63 9.25 3.64 0-.09-2.77-9.27-9.5-12.44-4.37-1.58-5.6 1-4.56 3.47.41 1 1.58 3 4.81 5.33zM37.51 109.77a1.85 1.85 0 0 0 .48.14c-.08-.12-.16-.17-2.06-1A68.31 68.31 0 0 1 22 101.17l.7.53a58.81 58.81 0 0 0 8.65 5.38 55.4 55.4 0 0 0 6 2.62l.18.07z" fill="#075368"></path><path d="M37.49 109c4.62 1.36 8.55 1.53 9 1.34-.17-.21-.17-.21-2.15-.85s-3.57-1.2-5.24-1.85c-3.87-1.49-7.56-3.36-11.41-4.89a17.82 17.82 0 0 0-1.72-.6c-.49-.1-.59-.11-.82 0-.39.78 5.25 4.81 12.32 6.89z" fill="#075368"></path><path d="M48.79 110a76.73 76.73 0 0 0 9.27 1c-6.83-.83-12.8-4.32-19.37-6-.59-.12-2.18-.43-1.79.35.48 1 4.47 3.33 11.89 4.64z" fill="#075368"></path><path d="M58.06 111c-2-.78-3.86-1.74-5.87-2.44-.94-.29-1.45-.39-1.64-.18.08.35 1.63 1.58 7.51 2.62zM52.48 113.17c.64 0 1-.28.88-.42a3.8 3.8 0 0 0-1.56-.17 36 36 0 0 1-8.33-1c.92.22 2.14.5 3.06.69 2.29.42 2.29.42 3.45.58.7.09 1.64.2 2.34.27z" fill="#075368"></path><path d="M52.76 112.1a40 40 0 0 0 5.3-1.15 44.61 44.61 0 0 1-7.76.41c-3.1-.07-6.16-.58-9.25-.78a1.51 1.51 0 0 0-.3 0 24.65 24.65 0 0 0 12 1.5z" fill="#075368"></path><path d="M58.06 111l-7.14-.19a4.44 4.44 0 0 0-1.18 0s2.34.74 8.31.09zM93.84 100.77c-3.24 2.36-5.94 4-7.92 5.2a12.41 12.41 0 0 0-2.11 1.39c.11 0 .18 0 .93-.33l.68-.36a57.81 57.81 0 0 0 8.52-5.47 58.43 58.43 0 0 0 6.69-6.06 63.73 63.73 0 0 1-6.79 5.63zM79.44 109.39a57.12 57.12 0 0 1-8.65 2.41 7.32 7.32 0 0 0-1.85.49c0 .06.09.1.62 0l.75-.15c2.68-.63 2.84-.66 4.41-1.12a60.35 60.35 0 0 0 6.5-2.35c-.88.38-1.53.63-1.78.72zM65.24 112.8a19.89 19.89 0 0 1-5.4-.83 1.59 1.59 0 0 0-.58-.13c-.18 0 .42 1.24.56 1.38a.65.65 0 0 0 .53.16h.59c1.78-.11 1.85-.12 2.76-.2 1.94-.22 2-.22 3-.38l.9-.14a14.72 14.72 0 0 1-2.41.16z" fill="#075368"></path><path d="M58.21 111.31c0-.11-.1-.25-.15-.36a13.08 13.08 0 0 1-1.79 1.48 5.75 5.75 0 0 0-.6.46c-.26.25-.18.3 0 .38a6.52 6.52 0 0 0 3-.13c.19-.16.13-.38.08-.56a8.5 8.5 0 0 0-.57-1.27z" fill="#075368"></path><path d="M58.06 111l-.37.15a2.44 2.44 0 0 0-.61.31s.2 0 1-.46z" fill="#075368"></path><path d="M57.91 2.56C56.84 1.32 56.73 1.19 56.7 1c-.07-.52.84-.44.94-.43 1.21.12.81.92.27 2z" fill="#2eaecc"></path><path d="M59.89.29a3.4 3.4 0 0 1 1.65-.2l1.53.11c1.95.19 2 .19 3 .33l.9.13a19.51 19.51 0 0 0-9.09 1.91c.67-.75 1-1.8 2-2.28zM69.58 1.11c2.6.57 2.76.6 4.26 1a26.77 26.77 0 0 0-8-.92c.06-.09 1-.56 3.49-.11l.33.06z" fill="#2eaecc"></path><path d="M57.09 2.5c-1.32-.09-2.57-.15-3.71-.2a11.37 11.37 0 0 1-2.87-.23c.16-.13 2.8-.51 7.4.5l-.82-.07z" fill="#2eaecc"></path><path d="M49.75 1.52c-1.82 0-3.62.17-5.43.12A25.08 25.08 0 0 1 51.65.58c2.36.16 3.46.62 6.26 2a33.16 33.16 0 0 0-8.16-1zM52.19.26C54.05.11 54.05.11 55 .06L56.65 0a3.19 3.19 0 0 0-.58.37c-.39.22-.65.25-1.73.16a19.88 19.88 0 0 0-4.7 0c.76-.1 1.78-.23 2.55-.31z" fill="#2eaecc"></path><path d="M57.66 2.64a13.12 13.12 0 0 1-2.74.72 9.17 9.17 0 0 1 3-.79l-.25.07z" fill="#2eaecc"></path><path d="M52.35 3.64c-2.73.66-5.4 1.55-8.14 2.17-1.91.42-2.13.26-2.28.15 0-.54 4.24-3.12 16-3.39a50.87 50.87 0 0 0-5.56 1.07z" fill="#2eaecc"></path><path d="M39.21 5.63c-8.68 2.76-8.68 2.76-9.09 2.65 0-.84 8.1-6.08 21.14-5.84a6.84 6.84 0 0 1 1.16.08c-.13.08-.13.08-1.06.22a72.09 72.09 0 0 0-12.15 2.89z" fill="#2eaecc"></path><path d="M29.87 7.21a42.22 42.22 0 0 0-4.16 2.31l1.09-.69a58.81 58.81 0 0 1 13.67-6.22 7.54 7.54 0 0 1 2.25-.45h.15v.08a11.31 11.31 0 0 1-2.38.84 72.29 72.29 0 0 0-10.62 4.13zM56 6c-2.77 5.61-6.22 5.52-6.7 4.23-.19-.53-.69-3.4 8.6-7.65-.47.55-.47.55-1.9 3.42zM45.19 11.59c-6.9 6.74-10.9 5.92-11.09 4.09-.3-2.93 6.28-8 15.55-10.52 1.2-.29 1.51-.32 1.66-.16-.05.5-6.06 6.53-6.12 6.59zM29.3 16.65c-8.28 7-10.55 5.68-10.35 4C19.39 16.83 27.88 10 36 8.14c1.2-.2 2.3-.3 1.4.91a96.31 96.31 0 0 1-8.06 7.6zM15.86 20.74c-3.6 3.55-5.45 5.26-6.2 5.36a.5.5 0 0 0-.08-.1c0-.56.76-1.82 2.54-4.11l.21-.27c1.51-1.74 3.58-4 5.21-5.66 4.05-3.82 6.49-5.05 7.58-5.45.36-.08.43-.09.59 0 .12.4.12.4-9.85 10.21zM64.07 14.46c1.67 6.06-3.31 9-6.87 6.78-4.45-2.7-3-9.92.21-13.46 3-2.81 6.63 6.58 6.66 6.68zM52.17 23.62c-2.05 8.31-10.39 9.87-13.11 5.58-2.93-4.61 1.84-11.88 7.74-14.83 7.48-3.07 5.41 9.12 5.37 9.25zM33.5 32.2c-4.15 8.25-12.5 9.72-14.28 4.18-1.65-5.24 3.93-13.38 10.86-15.91 7.54-2 5.5 7.58 3.42 11.73zM14.25 38.92c-3.45 6.66-7.84 9.19-9 5.21-1.51-5 3.56-16.25 9.52-18.78 5.29-1.47 1.76 9.25-.47 13.57zM2.54 44.3c-1.86 6-2 6.46-2.25 7l.52-4.2c1.24-5.73 1.28-6 2.4-9.14A54 54 0 0 1 7 29.51l.08-.13c0 .18 0 .18-4.59 14.94zM81.59 23.81c3.57 6.74-.94 11.38-6.57 9.31-6.89-2.52-9.22-12.28-6.66-16.52 3.19-3.88 11.12 3.21 13.23 7.21zM69.57 36.6c.65 8.86-8.42 12.67-14.27 8-5.52-4.35-4.84-13.6 1.33-17.89 6.78-3.79 12.53 4.29 12.94 9.89zM49.57 48.64C48 57.76 37.42 61.25 32.13 54.37c-4-5.12-2.38-14.33 5.5-18.08 8.8-3.19 13 6.1 11.94 12.35zM26.88 58.57c-1.91 8.75-10 11.3-14.42 4.54-3.87-5.9-2.37-16.27 4.52-19.2 7.57-2.14 11.46 7.48 9.9 14.66zM8.64 65.92c-.31 6.08-2.28 8.92-4.49 6.47C.51 68.35-.85 53 3.1 49.82c3.47-1.63 5.9 8.88 5.54 16.1z" fill="#2eaecc"></path><path d="M2.09 71.47c.54 2.18 1 3.42 1.2 4.09-.44-1.39-1.07-3.25-1.45-4.67A55.36 55.36 0 0 1 0 57.38a73.61 73.61 0 0 0 2.09 14.09zM101.53 35.39c3.42 7.53-.21 14-6.47 11.56S84.71 34.4 87.47 28.56c3.43-5.28 11.19.53 14.06 6.83zM90.48 51.85c1 9.28-8.4 15.21-15.46 9.77-5.35-4.12-6.62-13.72-.49-19.06 7.18-5 15.19 2.15 16 9.29zM70.09 67.05a11.15 11.15 0 0 1-19.32 7 11.82 11.82 0 0 1 3-18.52c9.57-4.35 17 4.13 16.36 11.56zM46.4 79.39c-.8 9.24-11.94 11.15-18.33 3.16-4.24-5.3-4.26-13.18 2.48-16.45 9-3.15 16.48 6 15.85 13.29zM26 87.6c.84 5.93-3.12 7.89-8.3 4.13C11.27 87 7 76.55 11.87 73.72 17.27 71.9 25 80.57 26 87.6zM15.08 92.34c2.38 4 2.51 4.52 2.56 4.76l-.09.1a4.07 4.07 0 0 1-1-.84l-1.05-1.09a55.84 55.84 0 0 1-5.91-7.36C8.36 86 6.8 83.32 5.73 81.3a5.73 5.73 0 0 1-.85-2.42.84.84 0 0 1 .06-.14c1-.26 6.07 6.82 10.14 13.6zM113.29 54.87c.76 8.88-3.29 15.92-7.35 12.77-3.36-2.6-5.57-12.56-2-19.92 3.44-5.72 7.43-1.59 8.78 3.88a23.76 23.76 0 0 1 .52 3.27zM101.71 73.33c-1.58 9.56-12.12 15.26-16.85 9.11-2.7-3.52-3-11.8 3.58-17.57 7.89-5.78 14.64.11 13.27 8.46zM80.76 88.56c-2.48 8.83-15.46 11.7-19.85 4.44-1.87-3.13-2.1-9.28 5-13.44 9.11-4.31 16.88 1.9 14.88 9zM58.6 99.06c-1.08 7.11-12.65 7.63-18 .81-1.88-2.42-3.49-7.25 2.4-10 8.1-2.72 16.43 3.31 15.55 9.16zM41.51 105.15c1.23 3-.31 4.89-6.52 2.15C28 104.22 22.27 98 26.2 96.15c5-1.33 13.38 4.22 15.31 9zM33.84 107.83a25.64 25.64 0 0 0 3.49 1.87 56.25 56.25 0 0 1-6-2.62 58.73 58.73 0 0 1-8.65-5.38l-.7-.53c-1.45-1.15-1.58-1.41-1.68-1.62v-.09c.93-.06 5.78 3.23 9 5.4 2.32 1.57 3.46 2.32 4.51 3zM111.3 78.65c-2.64 6.46-7.62 13.24-8.77 11-.9-1.76 1-10.09 6.1-17.33 4-5.16 4.45-2.1 4.51-1.43.14 1.68-.54 4.58-1.84 7.76zM97.69 94.13c-4.45 6.45-13.79 11.37-14.89 6.67-.53-2.3 1.1-7.66 7.75-12.29 6.24-3.83 9.9-2.26 9 1.7a11.64 11.64 0 0 1-1.88 3.92zM78.21 105.24c-4.31 5.15-14.8 7.08-15.3 1.67-.09-.93.07-4.18 5.81-6.88 7-2.74 12-.26 10.54 3.51a6.77 6.77 0 0 1-1.05 1.7zM61.08 111.25c-1.63 3.15-11.87 1.93-13-1.56-.6-1.76 1.58-2.57 2.3-2.84 5.77-1.56 12.18 1.63 10.75 4.4zM51.74 113.05a3.75 3.75 0 0 0 .58.11l-2.32-.27c-2.18-.33-2.27-.34-3.45-.58-.92-.19-2.15-.46-3.06-.69-3.89-1.05-3.35-1.64-3.33-1.67a.48.48 0 0 1 .16-.08c.67-.13 2.89-.18 9 2.26a23.5 23.5 0 0 0 2.47.92zM93.94 101.2a57.79 57.79 0 0 1-8.52 5.47l-.68.36c2.37-1.25 2.37-1.25 13.13-10.06a17.79 17.79 0 0 1 3-2.25 1 1 0 0 1-.29.42 57.67 57.67 0 0 1-6.69 6.06zM74.72 111c-2.86.78-2.86.78-4.41 1.12l-.75.15a20.8 20.8 0 0 0 4.67-2.06c2.72-1.43 3.82-2 5.89-2.89 5.68-2.34 5-1 5-1-.17.3-.9 1-3.89 2.35a62.6 62.6 0 0 1-6.5 2.35zM66.75 112.78c-2 .28-2 .28-3 .38-1.84.15-1.84.15-2.76.2h-.59a27.53 27.53 0 0 0 3.72-.87c3.93-.79 4.58-.35 4.64-.29s0 .24-1.06.42l-.9.14z" fill="#2eaecc"></path></svg></svg> <!----></g></g> <g transform="translate(67,0)"><g data-gra="path-name" fill-rule="" class="tp-name iconsvg-namesvg"><g transform="scale(1)"><g><path d="M37.3 21.77C37.9 21.77 38.14 21.63 38.14 21.03 38.14 6.93 36.93-33.24 30.14-42.11 28.84-43.78 27.55-44.47 26.3-44.47 17.94-44.47 10.26-13.04 9.34-6.56 1.53-5.59-6.19-3.33-13.54-0.14-13.73-0.05-14.61 0.28-14.61 0.6-14.61 1.11-13.82 1.29-13.41 1.29-11.42 1.29-11.14 0.65-9.52 0-3.65-2.36 2.91-4.3 9.11-5.45 8.55-4.81 6.61 9.01 6.61 10.45 6.61 13.45 8.27 14.33 10.17 14.33 12.43 14.33 14.93 13.04 14.93 12.8L14.88 12.76C12.3 11.97 11.51 8.09 11.51 4.07 11.51-0.42 12.48-5.13 12.85-5.73 13.96-6.47 32.5-7.77 34.35-7.77 34.67-1.94 35.27 6.75 35.27 13.08 35.27 16.96 35.04 19.97 34.35 20.8L34.35 20.85C34.35 21.22 36.89 21.77 37.3 21.77ZM13.36-7.07C14.1-14.24 23.94-39.2 29.17-39.2 31.57-39.2 33.47-21.45 33.74-17.8 33.98-15.07 34.3-12.25 34.3-9.52L34.3-9.01 34.25-8.92C32.36-8.92 29.35-8.69 27.64-8.55 22.74-8.23 18.21-7.67 13.36-7.07ZM46.55 2.08C51.22 2.08 59.4-6.38 60.42-7.3 60.65-7.53 60.74-7.67 60.74-7.81 60.74-8.09 60.28-8.14 59.91-8.14 58.75-8.14 53.34-2.87 52.42-2.87 52.33-2.87 52.28-2.91 52.28-3 52.28-3.24 52.56-3.74 53.2-4.76 53.57-5.32 53.9-6.24 53.9-6.93 53.9-8.46 52.74-9.15 51.45-9.15 49.55-9.15 47.98-8.18 46.36-5.45 47.57-9.24 49.23-13.45 49.23-20.43L49.23-21.03C49.23-22.88 49.14-26.35 46.96-26.35 43.5-26.35 42.02-20.39 42.02-13.78 42.02-6.47 43.78 1.34 45.53 1.94 45.86 2.03 46.18 2.08 46.55 2.08ZM45.58-8.97C45.67-11.6 45.58-24.64 46.92-24.73 47.2-24.73 47.33-23.67 47.33-22.1 47.33-18.21 46.55-11.09 45.58-8.97ZM47.01-1.34L46.96-1.71C46.96-3.37 48.58-7.16 50.2-7.16 50.52-7.16 50.8-6.98 50.8-6.66 50.8-5.32 47.43-1.57 47.01-1.34ZM64.35-0.46C66.47-0.46 67.67-1.85 68.83-3.47 72.2-3.47 76.18-6.75 76.18-7.63 76.18-8 75.9-8.14 75.58-8.14 75.35-8.14 75.07-8.04 74.98-7.9 73.73-6.1 71.6-4.44 69.29-4.44 69.66-5.36 69.89-6.43 69.89-7.53 69.89-10.35 68.6-13.22 65.59-13.22 64.11-13.22 58.71-13.22 58.71-7.49 58.75-5.18 59.4-4.53 61.34-3.7 61.25-3.47 61.25-3.24 61.25-3 61.25-1.57 62.63-0.46 64.35-0.46ZM66.66-4.58C63.93-4.58 63-5.92 63-7.49 63-9.61 64.76-12.16 66.1-12.16 67.58-12.16 68.04-11.05 68.04-9.66 68.04-7.77 67.12-5.32 66.66-4.58ZM64.21-1.8C63.51-1.8 63.1-2.27 63.1-2.68 63.1-2.91 63.14-3.14 63.28-3.42 63.79-3.28 64.35-3.24 64.99-3.24L66.1-3.28C65.59-2.22 64.85-1.8 64.21-1.8ZM85.19 2.91C90 2.91 94.67-2.59 94.67-7.26 94.67-7.67 94.25-7.81 93.88-7.81 93.33-7.81 93.47-7.44 93.33-6.89 91.48 0 88.38 1.02 87.13 1.02 85.7 1.02 85.29-0.51 85.29-2.4 85.29-5.55 86.49-9.8 86.49-10.12 86.49-11.14 85.84-11.6 85.1-11.6 84.22-11.6 83.16-11 82.79-10.08 81.59-7.07 80.71-1.66 78.17-1.66 77.75-1.66 77.61-2.13 77.61-2.77 77.61-4.48 78.58-7.63 78.58-8.51 78.58-9.2 77.15-9.2 76.59-9.2 74.19-9.2 73.87-6.1 73.87-4.53 73.87-1.85 74.98-0.46 78.03-0.46 80.94-0.46 81.91-5.22 82.42-5.45 82.19-4.48 81.91-2.91 81.91-1.43 81.91 0.79 82.56 2.91 85.19 2.91ZM99.61 1.62C102.71 1.62 106.09-0.88 108.4-2.77 109.04-3.33 113.71-7.07 113.71-7.53 113.71-8 112.93-8.14 112.6-8.14 112.33-8.14 111.96-8.14 111.77-7.9 109.97-5.41 103.87 0.51 100.4 0.51 100.17 0.51 99.94 0.46 99.71 0.42 97.3-0.23 96.7-4.99 96.7-8.92 96.7-11.6 96.98-13.91 97.16-14.33 97.26-14.42 108.58-14.88 114.64-14.88 116.12-14.88 117.32-14.88 117.92-14.79 119.12-14.61 118.94-14.01 119.82-14.01 120.28-14.01 120.55-14.14 120.55-14.47 120.55-14.61 120.46-14.84 120.23-15.07 119.72-15.58 116.02-15.76 111.73-15.76 105.76-15.76 98.69-15.44 97.4-15.39 97.53-16.59 99.01-22.28 100.82-24.27 101-24.45 101.09-24.68 101.09-24.87 101.09-25.93 99.01-26.9 97.3-26.9 96.52-26.9 95.73-26.67 95.32-26.12 94.39-24.92 93.74-17.2 93.33-15.3 90.88-15.21 87.41-14.88 85.1-14.88 84.04-14.88 83.44-14.98 82.97-15.07 82.93-15.07 82.88-14.98 82.88-14.79 82.88-14.47 83.16-13.87 84.22-13.87 87.13-13.87 90.32-14.19 93.24-14.19L93.19-10.26C93.19-4.99 93.84 1.62 99.61 1.62ZM158.6 12.62C159.57 12.62 160.12 12.06 160.12 11.09 160.08 9.61 158 10.12 157.81 9.24 157.58 8.18 157.49 6.75 157.49 5.13 157.49-5.08 161.28-24.36 162.99-30.97 163.45-32.73 165.86-36.8 165.86-37.86 165.86-38.55 164.38-39.2 162.99-39.2 162.11-39.2 161.28-38.97 160.82-38.37 159.61-36.8 159.29-34.16 158.55-32.31 153.7-20.29 141.31 7.26 135.21 7.26 133.82 7.26 133.36 4.35 133.36 0.6 133.36-5.59 134.61-14.1 134.88-15.72 135.07-16.73 139.14-21.96 139.55-22.84 140.29-24.31 140.57-25.52 140.57-26.63 140.57-27.92 140.15-29.12 139.46-30.55 139.09-31.34 138.67-31.8 137.84-31.8 133.82-31.8 132.53-20.99 131.65-18.07 131.42-17.29 130.49-16.55 130.49-15.72 130.49-15.02 131.05-14.88 131.05-14.33 130.91-12.39 130.35-7.95 130.35-3.51 130.35 2.4 131.33 8.27 135.39 8.27 143.85 8.27 153.65-14.24 157.49-20.34 156.56-16.92 155.45-6.98 155.45 1.06 155.45 5.5 155.78 9.34 156.66 11.28 156.93 11.93 157.4 12.62 158.6 12.62ZM168.91 3.88C171.31 3.88 175.65 2.77 175.65-0.28 175.65-0.97 175.29-1.66 174.68-2.08 176.02-2.87 181.02-4.95 181.48-6.29 181.57-6.61 181.62-6.84 181.62-7.07 181.62-7.81 181.2-8.09 180.83-8.09 180.6-8.09 180.46-8 180.37-7.86 179.72-6.61 177.27-4.16 173.39-3.14 170.85-4.67 168.95-7.67 168.95-9.06 168.95-10.26 169.6-10.45 170.52-10.49 170.29-10.12 170.11-9.71 170.11-9.29 170.11-8.55 170.94-8.46 171.49-8.46 171.96-8.46 172.33-8.64 172.33-9.15 172.33-10.59 170.34-11.74 169.09-11.74 167.38-11.74 164.7-10.77 164.7-8.74 164.75-4.9 169.69-3.56 171.4-2.36 169.88-1.76 166.22-0.28 166.22 1.8 166.22 3.47 167.47 3.88 168.91 3.88ZM169.6 2.77C169.23 2.77 168.81 2.68 168.81 2.36 168.81 1.53 172.1-0.65 172.93-0.92 173.16-0.69 173.25-0.42 173.25-0.14 173.25 1.16 170.99 2.77 169.6 2.77Z" transform="translate(14.609999656677246, 44.470001220703125)"></path></g> <!----> <!----> <!----> <!----> <!----> <!----> <!----></g></g> <!----></g></g><defs v-gra="od"></defs></svg>
